<?xml version="1.0" standalone="no"?>
<!DOCTYPE svg PUBLIC "-//W3C//DTD SVG 1.1//EN" "http://www.w3.org/Graphics/SVG/1.1/DTD/svg11.dtd" >
<!--
2013-9-30: Created.
-->
<svg>
<metadata>
Created by iconfont
</metadata>
<defs>

<font id="iconfont" horiz-adv-x="1024" >
  <font-face
    font-family="iconfont"
    font-weight="500"
    font-stretch="normal"
    units-per-em="1024"
    ascent="896"
    descent="-128"
  />
    <missing-glyph />
    
    <glyph glyph-name="tianjiatupian" unicode="&#58937;" d="M436.668329 370.806318a8.2 8.2 0 1 0 139.597672 0 8.2 8.2 0 1 0-139.597672 0ZM804.389027 547.005819l-51.072319 0 0 51.072319c0 9.363259-7.660848 17.024106-17.024106 17.024106-9.363259 0-17.024106-7.660848-17.024106-17.024106l0-51.072319-51.072319 0c-9.363259 0-17.024106-7.660848-17.024106-17.024106 0-9.363259 7.660848-17.024106 17.024106-17.024106l51.072319 0 0-51.072319c0-9.363259 7.660848-17.024106 17.024106-17.024106 9.363259 0 17.024106 7.660848 17.024106 17.024106l0 51.072319 51.072319 0c9.363259 0 17.024106 7.660848 17.024106 17.024106C821.413134 539.344971 813.752286 547.005819 804.389027 547.005819zM685.220283 453.373234l0 25.53616-25.53616 0c-23.833749 0-42.560266 18.726517-42.560266 42.560266 0 4.256027 0.851205 8.512053 1.702411 11.916874L473.270158 533.386534c1.702411 2.553616 2.553616 5.107232 2.553616 7.660848l0 15.321696c0 8.512053-6.809643 15.321696-15.321696 15.321696L337.077307 571.690773c-8.512053 0-15.321696-6.809643-15.321696-15.321696l0-15.321696c0-2.553616 0.851205-5.107232 2.553616-7.660848l-48.518703 0c-8.512053 0-15.321696-6.809643-15.321696-15.321696l0-287.707398c0-8.512053 6.809643-15.321696 15.321696-15.321696l463.055694 0c8.512053 0 15.321696 6.809643 15.321696 15.321696L754.167914 405.705736c-5.107232-1.702411-11.065669-3.404821-17.024106-3.404821C708.202826 402.300914 685.220283 425.283458 685.220283 453.373234zM506.467165 246.530341c-68.096426 0-123.424771 55.328346-123.424771 124.275977 0 68.947631 55.328346 124.275977 123.424771 124.275977 68.096426 0 123.424771-55.328346 123.424771-124.275977C629.891937 301.858687 574.563591 246.530341 506.467165 246.530341zM36.601829-28.408978l0 17.024106-34.048213 0 0-17.024106c0-35.750623 19.577722-68.947631 50.221114-86.822943l17.024106 29.792186C48.518703-73.52286 36.601829-51.391521 36.601829-28.408978zM205.140482 894.297589 101.293433 894.297589 101.293433 860.249377 205.140482 860.249377ZM2.553616 335.055694l34.048213 0 0-103.847049-34.048213 0 0 103.847049ZM2.553616 162.261014l34.048213 0 0-103.847049-34.048213 0 0 103.847049ZM447.733998 894.297589l103.847049 0 0-34.048213-103.847049 0 0 34.048213ZM621.379884 894.297589l103.847049 0 0-34.048213-103.847049 0 0 34.048213ZM2.553616 508.701579l34.048213 0 0-103.847049-34.048213 0 0 103.847049ZM794.174564 894.297589l103.847049 0 0-34.048213-103.847049 0 0 34.048213ZM274.939318 894.297589l103.847049 0 0-34.048213-103.847049 0 0 34.048213ZM36.601829 795.557772c0 16.172901 5.958437 31.494597 16.172901 43.411471l-25.53616 22.982544C11.065669 843.22527 2.553616 819.391521 2.553616 795.557772L2.553616 751.295096l34.048213 0L36.601829 795.557772zM2.553616 681.496259l34.048213 0 0-103.847049-34.048213 0 0 103.847049ZM989.951787 535.088944l34.048213 0 0-103.847049-34.048213 0 0 103.847049ZM989.951787 188.648379l34.048213 0 0-103.847049-34.048213 0 0 103.847049ZM989.951787 362.294264l34.048213 0 0-103.847049-34.048213 0 0 103.847049ZM973.778886 881.52951l-17.024106-29.792186c20.428928-11.916874 33.197007-33.197007 33.197007-57.030756l0-17.024106 34.048213 0 0 17.024106C1024 830.45719 1005.273483 863.654198 973.778886 881.52951zM989.951787 708.73483l34.048213 0 0-103.847049-34.048213 0 0 103.847049ZM821.413134-93.951787 821.413134-128 925.260183-128 925.260183-93.951787ZM989.951787-28.408978c0-16.172901-5.958437-31.494597-16.172901-43.411471l25.53616-22.982544c16.172901 17.875312 25.53616 41.709061 25.53616 66.394015l0 44.262677-34.048213 0L990.802993-28.408978zM301.326683-93.951787l103.847049 0 0-34.048213-103.847049 0 0 34.048213ZM474.972569-93.951787l103.847049 0 0-34.048213-103.847049 0 0 34.048213ZM647.767249-93.951787l103.847049 0 0-34.048213-103.847049 0 0 34.048213ZM128.532003-93.951787l103.847049 0 0-34.048213-103.847049 0 0 34.048213Z"  horiz-adv-x="1025" />

    
    <glyph glyph-name="lianxi" unicode="&#58991;" d="M438.3-21.2l-98.6 82.8c-11.7 9.8-13.3 27.3-3.4 39.1 11.4 13.5 31.5 15.3 45.1 3.9L431 63l58.1 69.2h381.4c16.5 0 29.9 13.4 29.9 29.9V699.6c0 16.5-13.4 29.9-29.9 29.9H153.6c-16.5 0-29.9-13.4-29.9-29.9V162c0-16.5 13.4-29.9 29.9-29.9h61.3c17.7 0 32-14.3 32-32 0-15.3-12.4-27.7-27.7-27.7h-65.6c-49.5 0-89.6 40.1-89.6 89.6V699.6c0 49.5 40.1 89.6 89.6 89.6h716.8c49.5 0 89.6-40.1 89.6-89.6V162c0-49.5-40.1-89.6-89.6-89.6H516.9l-78.6-93.6zM293.7 434m-48 0a48 48 0 1 1 96 0 48 48 0 1 1-96 0ZM511.7 434m-48 0a48 48 0 1 1 96 0 48 48 0 1 1-96 0ZM730.3 434m-48 0a48 48 0 1 1 96 0 48 48 0 1 1-96 0Z"  horiz-adv-x="1024" />

    
    <glyph glyph-name="ccgl-tousuguanli-11" unicode="&#59262;" d="M834.142 828.808h-644.284c-59.204 0-107.38-47.794-107.38-106.523v-461.598c0-58.725 48.176-106.522 107.38-106.522h0.462l-0.462-177.424c-0.036-14.599 8.947-27.738 22.584-33.131 4.293-1.667 8.767-2.483 13.211-2.483 9.697 0 19.219 3.904 26.125 11.218l190.386 201.819h391.978c59.204 0 107.38 47.797 107.38 106.522v461.599c0 58.73-48.176 106.523-107.38 106.523v0zM746.483 348.683c-16.964-9.908-38.944-4.257-48.966 12.641-28.808 48.644-111.242 88.203-183.832 88.203-72.841 0-155.454-39.876-184.162-88.877-9.951-16.974-31.856-22.718-48.928-12.851-17.108 9.832-22.91 31.598-12.958 48.539 47.244 80.67 162.038 124.239 246.083 124.239 83.646-0.039 198.111-43.251 245.503-123.284 9.994-16.903 4.298-38.666-12.741-48.61v0zM746.483 348.683z"  horiz-adv-x="1024" />

    
    <glyph glyph-name="tongzhi" unicode="&#58903;" d="M793.76195077 345.65635173V575.8922272c0 163.77462581-103.26065759 238.78466101-239.53169587 253.79440076 0.03590186 1.00249043 0.30240414 1.94422388 0.30240413 2.96742693 0 29.20340256-24.05148546 52.85444418-53.65118934 52.85444418-29.65769919 0-53.67742531-23.65104162-53.67742531-52.85444418 0-1.00387129 0.25959807-1.93317715 0.31897423-2.87352976-136.87308491-14.68662301-240.76754843-89.65247127-240.76754842-253.88829793v-230.23587547c0-184.81311659-474.57427826-276.3338655 285.12291733-276.3338655C1251.57972565 69.32248622999998 793.76195077 160.84461597999996 793.76195077 345.65635173zM500.88008885-79.95469178999997c56.19884066 0 101.78591959 44.92427534 101.78591959 100.30703908H399.08726506C399.08726506-35.03041644999996 444.65639307-79.95469178999997 500.88008885-79.95469178999997z"  horiz-adv-x="1000" />

    
    <glyph glyph-name="renwu" unicode="&#58998;" d="M869.8 724.8c0 29-22.2 51.2-51.2 51.2H204.2c-29 0-51.2-22.2-51.2-51.2v-682.7c0-29 22.2-51.2 51.2-51.2h614.4c29 0 51.2 22.2 51.2 51.2V724.8zM315.1 173.5c-18.8 0-34.1 15.4-34.1 34.1 0 18.8 15.4 34.1 34.1 34.1 18.8 0 34.1-15.4 34.1-34.1 0.1-18.7-15.3-34.1-34.1-34.1z m0 163.9c-18.8 0-34.1 15.4-34.1 34.1 0 18.8 15.4 34.1 34.1 34.1 18.8 0 34.1-15.4 34.1-34.1 0.1-18.8-15.3-34.1-34.1-34.1z m0 165.5c-18.8 0-34.1 15.4-34.1 34.1s15.4 34.1 34.1 34.1c18.8 0 34.1-15.4 34.1-34.1s-15.3-34.1-34.1-34.1z m404.5-307.2H412.4c-10.2 0-17.1 8.5-17.1 17.1 0 10.2 6.8 17.1 17.1 17.1h307.2c8.5 0 17.1-6.8 17.1-17.1 0-8.5-8.6-17.1-17.1-17.1z m0 170.7H412.4c-10.2 0-17.1 8.5-17.1 17.1 0 8.5 6.8 17.1 17.1 17.1h307.2c8.5 0 17.1-8.5 17.1-17.1 0-8.6-8.6-17.1-17.1-17.1z m0 170.7H412.4c-10.2 0-17.1 6.8-17.1 17.1 0 10.2 6.8 17.1 17.1 17.1h307.2c8.5 0 17.1-6.8 17.1-17.1s-8.6-17.1-17.1-17.1z m0 0"  horiz-adv-x="1024" />

    
    <glyph glyph-name="untitled" unicode="&#59007;" d="M0 226.144a97.632 97.632 0 0 1 97.312-97.312h293.216v-121.984H219.296c-26.784 0-49.248-22.464-49.248-49.248s22.464-49.248 49.248-49.248h585.248c26.784 0 49.248 22.464 49.248 49.248s-22.464 49.248-49.248 49.248h-171.104v121.984h293.216a97.632 97.632 0 0 1 97.312 97.312v49.248H0v-49.248zM927.584 859.616H97.312A97.632 97.632 0 0 1 0 762.304v-438.72h1023.968V762.304c1.056 53.408-42.848 97.312-96.384 97.312z"  horiz-adv-x="1024" />

    
    <glyph glyph-name="xinxiduanxinxiaoxitixingyoujiansixinyouxiang" unicode="&#59116;" d="M1346.389333 808.448a42.581333 42.581333 0 0 1-3.669333-2.048l-136.362667-91.136c-368.042667-248.32-552.362667-372.394667-552.96-371.968l-557.226666 379.904L0 788.309333V811.861333C0 858.368 37.717333 896 84.138667 896h1178.112c46.421333 0 84.138667-37.632 84.138666-84.138667v-3.413333z m0-100.864v-737.28a84.138667 84.138667 0 0 0-84.138666-84.053333H84.138667A84.138667 84.138667 0 0 0 0-29.610667V686.677333l48.810667-33.109333 557.226666-379.733333c29.269333-20.053333 67.84-20.224 97.28-0.341334l550.229334 372.053334 92.842666 62.037333z"  horiz-adv-x="1365" />

    
    <glyph glyph-name="renwu1" unicode="&#58952;" d="M872.091663-127.957335H111.632682A69.11712 69.11712 0 0 0 42.686221-59.522853V691.549852A69.11712 69.11712 0 0 0 111.675347 759.899004h34.47323v-102.609058a69.11712 69.11712 0 0 1 68.989126-68.434482h552.638306a69.11712 69.11712 0 0 1 68.946461 68.434482V759.899004h34.515895a69.11712 69.11712 0 0 0 68.989126-68.391817v-751.072705c0.810633-37.459773-30.420066-68.434482-68.178493-68.434482z m-154.446898 464.321986a53.885755 53.885755 0 0 1-73.852923 0l-184.781634-174.328736-86.183076 81.489938a53.885755 53.885755 0 0 1-73.938252 0c-20.521812-19.583184-20.521812-50.515229 0-69.245115l123.173534-115.707179a53.885755 53.885755 0 0 1 73.895588 0l221.729428 208.545978c20.479147 18.772551 20.479147 49.704596 0 69.245114z m-53.331111 320.96796H319.410691A69.11712 69.11712 0 0 0 250.464231 725.767093V759.899004C388.399817 860.161493 390.021082 861.782759 426.243573 896h137.082288c33.705262-31.785342 32.851965-35.838507 169.976918-136.058331v-34.174576c0-38.31307-30.377401-68.434482-68.946461-68.434482z m-172.451482 170.232907A69.11712 69.11712 0 0 1 422.830382 759.131036a69.11712 69.11712 0 0 1 68.989126-68.391817 69.11712 69.11712 0 0 1 68.989125 68.391817c0 38.31307-31.230699 68.434482-68.989125 68.434482z"  horiz-adv-x="1024" />

    
    <glyph glyph-name="shensu1" unicode="&#59065;" d="M786.272-18.272H54.848c-29.248 0-54.848-25.6-54.848-54.88C0-102.4 25.6-128 54.848-128h731.424c29.28 0 54.88 25.6 54.88 54.848 0 29.28-25.6 54.88-54.88 54.88zM128 18.24h548.576c29.248 0 54.848 25.6 54.848 54.88 0 29.248-25.6 54.848-54.848 54.848H128c-29.248 0-54.848-25.6-54.848-54.848 0-29.28 25.6-54.88 54.848-54.88zM1009.376 102.4L665.6 446.176l102.4 102.4a35.36 35.36 0 0 1 51.2 0l51.2 51.2a35.36 35.36 0 0 1 0 51.2L636.352 885.024a35.36 35.36 0 0 1-51.2 0l-51.2-51.2a35.36 35.36 0 0 1 0-51.2L248.64 497.376a35.36 35.36 0 0 1-51.2 0l-51.2-51.2a35.36 35.36 0 0 1 0-51.2l234.08-234.048a35.36 35.36 0 0 1 51.2 0l51.2 51.2a35.36 35.36 0 0 1 0 51.2l106.048 106.048L932.576 25.6c21.952-21.952 54.848-21.952 76.8 0a60.608 60.608 0 0 1 0 76.8z"  horiz-adv-x="1024" />

    
    <glyph glyph-name="fadan" unicode="&#58954;" d="M398.222222 384A341.333333 341.333333 0 0 0 739.555556 725.333333v14.222223A99.84 99.84 0 0 1 640 839.111111h-540.444444A99.84 99.84 0 0 1 0 739.555556v-711.111112A99.84 99.84 0 0 1 99.555556-71.111111h540.444444a99.84 99.84 0 0 1 99.555556 99.555555V42.666667a341.333333 341.333333 0 0 0-341.333334 341.333333z m-56.888889-286.72a26.168889 26.168889 0 0 0-26.168889-26.168889H139.946667a26.168889 26.168889 0 0 0-26.168889 26.168889v4.551111a26.168889 26.168889 0 0 0 26.168889 26.168889h175.217777a26.168889 26.168889 0 0 0 26.168889-26.168889z m0 199.111111a26.168889 26.168889 0 0 0-26.168889-26.168889H139.946667a26.168889 26.168889 0 0 0-26.168889 26.168889v4.551111a26.168889 26.168889 0 0 0 26.168889 26.168889h175.217777a26.168889 26.168889 0 0 0 26.168889-26.168889z m0 199.111111a26.168889 26.168889 0 0 0-26.168889-26.168889H139.946667a26.168889 26.168889 0 0 0-26.168889 26.168889v4.551111a26.168889 26.168889 0 0 0 26.168889 26.168889h175.217777a26.168889 26.168889 0 0 0 26.168889-26.168889z m0 199.111111a26.168889 26.168889 0 0 0-26.168889-26.168889H139.946667A26.168889 26.168889 0 0 0 113.777778 694.613333v4.551111A26.168889 26.168889 0 0 0 139.946667 725.333333h175.217777a26.168889 26.168889 0 0 0 26.168889-26.168889zM739.555556 668.444444a284.444444 284.444444 0 1 1 284.444444-284.444444A284.444444 284.444444 0 0 1 739.555556 668.444444z m162.986666-302.364444L770.56 241.777778a28.444444 28.444444 0 0 0-25.884444-6.826667 25.6 25.6 0 0 0-19.057778 17.92 23.893333 23.893333 0 0 0 7.395555 24.177778L824.888889 355.555556h-256a30.435556 30.435556 0 0 0-28.444445 28.444444 31.004444 31.004444 0 0 0 28.444445 28.444444h256l-91.875556 78.222223a23.893333 23.893333 0 0 0 0 35.271111 28.444444 28.444444 0 0 0 37.262223 0l131.982222-124.586667a23.893333 23.893333 0 0 0 0-35.271111z"  horiz-adv-x="1024" />

    
    <glyph glyph-name="jiedan" unicode="&#58915;" d="M800.069524 309.248V715.452632a89.573053 89.573053 0 0 1-88.872421 90.273684h-533.557895a89.626947 89.626947 0 0 1-88.926315-90.273684v-631.861895a89.626947 89.626947 0 0 1 88.926315-90.273684h400.060632v-90.273685H88.712893A89.573053 89.573053 0 0 0 0.002156-6.682947V805.726316A89.573053 89.573053 0 0 0 88.874577 896h711.410526a89.626947 89.626947 0 0 0 88.926316-90.273684v-496.478316h-89.141895z m-621.514105 361.094737h532.210526v-90.920421H178.555419V670.342737z m435.631158-619.789474l62.895158 63.865263 175.535158-178.283789L789.775629-128l-175.589052 178.553263z m400.545684 179.415579l62.841263-63.811368-269.850947-274.000842-62.841263 63.811368 269.850947 274.000842zM178.555419 444.685474h532.210526v-90.974316H178.555419V444.685474z m0-225.711158h309.894737v-90.920421h-309.894737v90.920421z"  horiz-adv-x="1077" />

    
    <glyph glyph-name="xiaoxi1" unicode="&#58901;" d="M836.033 107.20000000000005l6-6 117.8-117.8h-235.6l-206.5-0.2h-5.8c-247.4 0-448 179.5-448 400.8s200.6 400.8 448 400.8 448-179.5 448-400.8c0.1-107.4-47.1-204.9-123.9-276.8z m-182.6 206.1c39.1 0 70.7 31.7 70.7 70.7s-31.7 70.7-70.7 70.7c-39.1 0-70.7-31.7-70.7-70.7s31.7-70.7 70.7-70.7z m-282.9 0c39.1 0 70.7 31.7 70.7 70.7s-31.7 70.7-70.7 70.7-70.7-31.7-70.7-70.7 31.6-70.7 70.7-70.7z"  horiz-adv-x="1024" />

    
    <glyph glyph-name="shensu" unicode="&#58902;" d="M755.2 268.8v47.9744h-22.3744v-47.9744h-112.0256V76.8h22.4256v19.2h89.6v-80.0256h22.3744v80.0256h89.6V76.8h22.4256v192H755.2z m-22.3744-153.6h-89.6v54.3744h89.6v-54.3744z m0 76.8h-89.6v54.3744h89.6v-54.3744z m111.9744-76.8h-89.6v54.3744h89.6v-54.3744z m-102.4 332.8c156.8256 0 281.6-128 281.6-288C1024 3.1744 896-128 742.4-128 585.6256-128 460.8 0 460.8 160s128 288 281.6 288z m105.6256 320v-204.8a35.5328 35.5328 0 0 0-35.2256-35.2256 35.5328 35.5328 0 0 0-35.1744 35.2256v204.8c0 22.3744-16.0256 41.5744-38.4 41.5744H108.8c-19.2 0-38.4-19.2-38.4-41.5744v-780.8c0-22.4256 16.0256-41.6256 38.4-41.6256H422.4c19.2 0 35.2256-15.9744 35.2256-35.1744a35.5328 35.5328 0 0 0-35.2256-35.2256H108.8c-60.7744 0-108.8 51.2-108.8 112.0256V768C0 832 48.0256 879.9744 108.8 879.9744h630.4256c60.7744 3.2256 108.8-47.9744 108.8-111.9744zM742.4 396.8c-128 0-230.4-105.6256-230.4-233.6256 0-131.1744 102.4-233.5744 230.4-233.5744s230.4 105.5744 230.4 233.5744c0 128-102.4 233.6256-230.4 233.6256z m102.4-150.4256v-54.3744h-89.6v54.3744h89.6zM316.8256 339.2c19.2 0 35.1744-16.0256 35.1744-35.2256a35.5328 35.5328 0 0 0-35.1744-35.1744H246.4256a35.5328 35.5328 0 0 0-35.2256 35.1744c0 19.2 16.0256 35.2256 35.2256 35.2256h70.4z m281.6 288c19.2 0 35.1744-16.0256 35.1744-35.2256a35.5328 35.5328 0 0 0-35.1744-35.1744H246.4256a35.5328 35.5328 0 0 0-35.2256 35.1744c0 19.2 16.0256 35.2256 35.2256 35.2256h352z"  horiz-adv-x="1024" />

    
    <glyph glyph-name="fabu" unicode="&#58880;" d="M1237.333333 108.533333H1061.333333c-16.4 0-29.333333 13.866667-29.333333 31.466667 0 17.6 12.933333 31.466667 29.333333 31.466667h176c16.4 0 29.333333-13.866667 29.333334-31.466667-0.133333-16.933333-12.933333-31.466667-29.333334-31.466667z m0 0M1120 45.6V234.533333c0 17.6 12.933333 31.466667 29.333333 31.466667s29.333333-13.866667 29.333334-31.466667v-188.933333c0-17.6-12.933333-31.466667-29.333334-31.466667-15.866667-0.133333-29.333333 14.4-29.333333 31.466667z m0 0M973.333333 128.666667c0 16.4-9.333333 30.8-23.466666 35.866666-44.533333 17.066667-75.066667 28.933333-80.4 30.8L836.666667 209.333333c62.133333 75.6 302.133333 367.866667 396 481.866667-13.6-71.2-37.066667-197.2-59.333334-315.6-4.666667-23.866667 12.266667-46 35.2-46 17.066667 0 31.733333 12.533333 35.2 30.8 36.933333 195.866667 79.2 421.333333 79.733334 425.2l0.533333 3.2c1.733333 12 7.066667 39.066667-21.733333 53.6-4.666667 2.533333-9.333333 3.733333-14.666667 3.733333-8.266667 0-22.933333-5.066667-31.066667-12.533333-22.933333-12.533333-794.8-444-823.6-459.733333-20-11.333333-31.733333-31.466667-29.866666-52.266667 1.2-17.6 12.266667-32.133333 28.8-37.733333 24-8.133333 238.8-92 241.066666-92.533334l69.866667-24.533333V-42.666667c1.2-13.2 8.266667-25.2 19.333333-30.8 24-12 49.333333 5.733333 51.6 30.8v1.333334c0 1.2 0.533333 122.133333 0 178.933333l31.733334-13.866667h0.533333c1.2-0.666667 13.466667-5.6 32.8-12.533333 12.933333-5.066667 28.8-11.333333 45.733333-18.266667 24.133333-9.6 48.8 8.666667 48.8 35.733334z m-200 119.733333c-2.933333-3.2-5.333333-6.266667-7.6-9.466667L514.666667 334l628.266666 364C1030.133333 560.8 786.133333 263.466667 773.333333 248.4z m0 0"  horiz-adv-x="1821" />

    
    <glyph glyph-name="jianzhi" unicode="&#58881;" d="M551.77 736.76v16.325c0 24.567-20.1 44.666-44.666 44.666h-5.574c-24.585 0-44.665-20.1-44.665-44.666v-18.103c-186.217-26.523-329.862-186.948-329.862-380.36 0-211.888 172.382-384.27 384.291-384.27 28.34 0 56.645 3.102 84.076 9.23 13.697 3.063 22.333 16.622 19.27 30.318-3.063 13.716-16.7 22.293-30.337 19.27a336.885 336.885 0 0 0-73.009-8.005c-183.884 0-333.497 149.594-333.497 333.458S327.41 688.1 511.294 688.1c183.865 0 333.46-149.615 333.46-333.478 0-24.528-2.69-48.995-7.948-72.711-3.042-13.697 5.574-27.256 19.291-30.298 13.677-3.103 27.255 5.573 30.318 19.269 6.068 27.314 9.15 55.497 9.15 83.74 0 198.213-150.859 361.839-343.796 382.137z m-39.785-163.646c-14.031 0-25.395-11.383-25.395-25.395v-191.552c0-14.034 11.364-25.417 25.395-25.417h179.26c14.052 0 25.396 11.383 25.396 25.417 0 14.032-11.344 25.395-25.396 25.395H537.402V547.718c0 14.013-11.364 25.396-25.417 25.396z m239.283-328.101c-73.937 0-133.882-59.925-133.882-133.861 0-73.918 59.945-133.842 133.882-133.842 73.917 0 133.841 59.924 133.841 133.842 0 73.936-59.923 133.86-133.841 133.86z m44.746-150.958c7.926 0 14.348-6.423 14.348-14.329 0-7.925-6.422-14.33-14.348-14.33h-29.765v-27.392c0-7.926-6.444-14.349-14.349-14.349-7.924 0-14.347 6.423-14.347 14.349v27.393h-32.334c-7.925 0-14.349 6.404-14.349 14.329 0 7.906 6.424 14.33 14.35 14.33h32.332v15.631h-31.07c-7.906 0-14.327 6.424-14.327 14.33 0 7.924 6.42 14.348 14.328 14.348h20.12l-21.958 21.978c-5.594 5.594-5.594 14.665 0 20.259 5.593 5.611 14.686 5.611 20.258 0l27.156-27.138 27.155 27.138c5.612 5.611 14.686 5.611 20.278 0 5.613-5.594 5.613-14.665 0-20.259l-21.977-21.978h19.783c7.925 0 14.33-6.424 14.33-14.348 0-7.906-6.405-14.33-14.33-14.33h-31.05v-15.632h29.766z"  horiz-adv-x="1024" />

    
    <glyph glyph-name="shangcheng1" unicode="&#58897;" d="M1013.76003 551.424v1.536c-0.512 2.048-1.024 4.096-2.048 6.144l-86.528 217.6c-14.848 44.544-56.32 72.704-108.544 72.704H209.40803c-51.2 0-90.624-27.648-104.96-70.656L11.77603 557.056c-0.512-1.536-1.024-3.072-1.536-5.12C3.58403 531.456 0.00003 509.44 0.00003 487.936A205.476 205.476 0 0 1 107.52003 307.2c27.136-14.848 59.392-22.016 95.232-22.016h0.512c59.904 0 116.736 26.624 155.136 72.704 37.888-46.08 94.72-72.192 154.112-72.704 59.392 0.512 115.712 27.136 153.6 72.704 38.4-46.08 95.232-72.704 155.648-72.704 36.864 0.512 69.632 8.192 96.768 23.04 85.504 48.128 125.952 149.504 95.232 243.2z m-215.04-36.352H208.38403c-20.48 0-36.864 16.384-36.864 36.864s16.384 37.376 36.864 37.376h590.848c20.48 0 36.864-16.384 36.864-37.376s-16.896-36.864-37.376-36.864zM947.20003 217.6c0 20.48-16.384 37.376-36.864 37.376-3.584 0-7.168-1.024-10.752-2.048-28.16-11.264-58.368-16.384-88.576-15.36-58.368 3.072-102.4 14.848-145.408 51.2-42.496-36.864-96.768-56.832-153.088-57.344-57.856 0.512-112.128 14.848-154.624 51.2-42.496-36.864-97.28-54.272-155.136-54.272-35.328 0-55.296 6.656-87.552 18.944-1.024 0.512-2.048 0.512-2.56 1.024l-4.096 1.536s-5.632 1.024-8.192 1.024c-20.48 0-36.864-16.896-36.864-37.376v-199.68c0-52.736 42.496-95.232 94.72-95.232l694.784 0.512c52.224 0.512 94.72 43.008 94.72 95.232L947.20003 217.6z"  horiz-adv-x="1024" />

    
    <glyph glyph-name="jianzhi1" unicode="&#58907;" d="M592.384 110.592c0 88.064 71.68 159.232 159.232 159.232 46.592 0 88.576-19.968 117.76-52.224 15.872 41.984 25.088 88.064 25.088 135.68 0 197.632-150.016 360.448-342.528 380.416V752.64c0 24.576-19.968 44.544-44.544 44.544H501.76c-24.576 0-44.544-19.968-44.544-44.544v-19.968c-185.344-26.624-328.192-186.368-328.192-378.88 0-210.944 171.52-382.976 382.976-382.976 46.08 0 90.112 8.192 131.072 23.04-31.232 29.184-50.688 70.656-50.688 116.736z m99.328 219.648h-179.2c-13.824 0-25.6 11.264-25.6 25.6V547.328c0 13.824 11.264 25.6 25.6 25.6 13.824 0 25.6-11.264 25.6-25.6v-166.4h153.6c13.824 0 25.6-11.264 25.6-25.6 0-13.824-11.264-25.088-25.6-25.088zM752.128 244.224c-73.728 0-133.632-59.904-133.632-133.632 0-73.728 59.904-133.632 133.632-133.632 73.728 0 133.632 59.904 133.632 133.632 0 73.728-59.904 133.632-133.632 133.632z m44.544-150.528c7.68 0 14.336-6.656 14.336-14.336 0-7.68-6.656-14.336-14.336-14.336h-29.696v-27.648c0-7.68-6.656-14.336-14.336-14.336-7.68 0-14.336 6.656-14.336 14.336v27.648h-32.256c-7.68 0-14.336 6.656-14.336 14.336 0 7.68 6.656 14.336 14.336 14.336h32.256v15.872h-31.232c-7.68 0-14.336 6.656-14.336 14.336 0 7.68 6.656 14.336 14.336 14.336h19.968l-22.016 22.016c-5.632 5.632-5.632 14.848 0 20.48s14.848 5.632 20.48 0l27.136-27.136 27.136 27.136c5.632 5.632 14.848 5.632 20.48 0s5.632-14.848 0-20.48L778.24 138.24h19.968c7.68 0 14.336-6.656 14.336-14.336 0-7.68-6.656-14.336-14.336-14.336h-31.232v-15.872h29.696z"  horiz-adv-x="1024" />

    
    <glyph glyph-name="shangcheng" unicode="&#58898;" d="M816.64 798.208c29.696 0 52.224-14.336 59.904-37.888l0.512-1.536 0.512-1.536L962.56 544.256v-1.024l2.56-7.68c23.04-69.632-7.168-146.432-71.68-182.272-19.456-10.752-44.032-16.384-72.192-16.384-45.056 0-87.04 19.968-115.712 54.272l-39.424 47.104-39.424-47.104a151.3984 151.3984 0 0 0-114.176-54.272c-45.056 0.512-86.528 19.968-114.688 54.272L358.4 438.272l-39.424-47.616c-28.672-34.304-71.168-54.272-115.712-54.272h-0.512c-27.648 0-51.712 5.12-70.656 15.872C81.92 379.392 51.2 431.104 51.2 487.936c0 15.872 2.56 32.768 7.68 48.128l0.512 1.536 0.512 1.536 91.648 219.648 0.512 1.536 0.512 2.048c7.68 22.528 28.16 35.84 56.32 35.84h607.744m0 51.2H209.408c-51.2 0-90.624-27.648-104.96-70.656L11.776 557.056c-0.512-1.536-1.024-3.072-1.536-5.12-6.656-20.48-10.24-42.496-10.24-64C0 412.672 40.96 343.04 107.52 307.2c27.136-14.848 59.392-22.016 95.232-22.016h0.512c59.904 0 116.736 26.624 155.136 72.704 37.888-46.08 94.72-72.192 154.112-72.704 59.392 0.512 115.712 27.136 153.6 72.704 38.4-46.08 95.232-72.704 155.648-72.704 36.864 0.512 69.632 8.192 96.768 23.04 85.504 48.128 125.952 149.504 95.232 243.2V552.96c-0.512 2.048-1.024 4.096-2.048 6.144l-86.528 217.6c-14.848 44.544-56.32 72.704-108.544 72.704zM799.232 589.312H208.384c-20.48 0-36.864-16.896-36.864-37.376s16.384-36.864 36.864-36.864H798.72c20.48 0 37.376 15.872 37.376 36.864s-16.384 37.376-36.864 37.376zM179.2-81.408c-63.488 0-114.688 51.712-114.688 115.2v188.416c0 14.336 11.264 25.6 25.6 25.6s25.6-11.264 25.6-25.6v-188.416c0-35.328 28.672-64 63.488-64l654.848 0.512c34.816 0.512 63.488 29.184 63.488 64l-0.512 191.488c0 14.336 11.264 25.6 25.6 25.6s25.6-11.264 25.6-25.6l0.512-191.488c0-62.976-51.2-114.688-114.688-115.2l-654.848-0.512z"  horiz-adv-x="1024" />

    
    <glyph glyph-name="dagou" unicode="&#58895;" d="M468.814-91.76c78.447 143.272 352.479 399.539 548.152 530.388l76.933 46.882c30.275 16.384 56.81 27.603 77.913 32.278-60.282 137.527-7.39 249.277 1.202 378.167-72.704-37.22-146.076-89.71-216.82-149.593l-81.876-73.594c-235.832-223.41-423.713-498.777-423.713-498.777l-137.75 266.552L0 288.412c132.363-47.193 334.848-215.396 468.458-380.127l0.356-0.044z"  horiz-adv-x="1202" />

    
    <glyph glyph-name="you" unicode="&#58924;" d="M512 896c282.77 0 512-229.23 512-512s-229.23-512-512-512S0 101.23 0 384 229.23 896 512 896z m-82.798-292.571L276.81 577.097l-10.386-74.057 37.303 6.144L256 164.571h112.018l50.798 364.8 10.386 74.058z m200.777-0.622H503.296l18.359-22.638-26.332-77.129h-56.32l-7.936-59.977h44.069l-94.281-277.285h114.468l85.066 277.285h174.445l7.973 59.977h-164.06l31.232 99.767z m65.463-177.481H589.568L552.85 165.778h174.446l11.008 80.201-26.331-23.259h-45.276l28.782 202.606z m52.041 166.473h-87.515l8.558-68.535h86.93l-7.973 68.535z"  horiz-adv-x="1024" />

    
    <glyph glyph-name="biaoji" unicode="&#58980;" d="M882.043614 245.233645c19.140187 0 31.900312 12.760125 31.900311 31.900311V832.199377c0 31.900312-25.520249 57.420561-57.420561 57.420561H173.856698c-31.900312 6.380062-57.420561-25.520249-57.420561-57.420561v-899.588785c0-19.140187 12.760125-44.660436 31.900312-51.040499 6.380062-6.380062 12.760125-6.380062 25.520249-6.380062s19.140187 0 25.520249 6.380062L512 60.211838l312.623053-178.641745c19.140187-12.760125 38.280374-12.760125 57.420561 0 19.140187 12.760125 31.900312 31.900312 31.900311 51.040499v165.88162c0 19.140187-12.760125 31.900312-31.900311 31.900311s-31.900312-12.760125-31.900312-31.900311V-61.009346l-306.24299 178.641745c-19.140187 12.760125-38.280374 12.760125-57.420561 0L180.23676-61.009346V832.199377h484.884735v-229.682243c0-19.140187 19.140187-38.280374 38.280374-38.280374s38.280374 19.140187 38.280374 38.280374V832.199377h108.461059v-555.065421c0-19.140187 12.760125-31.900312 31.900312-31.900311z"  horiz-adv-x="1024" />

    
    <glyph glyph-name="DOCtubiao" unicode="&#58941;" d="M192 512h640a42.666667 42.666667 0 0 0 42.666667-42.666667v-362.666666a42.666667 42.666667 0 0 0-42.666667-42.666667H192v-106.666667a21.333333 21.333333 0 0 1 21.333333-21.333333h725.333334a21.333333 21.333333 0 0 1 21.333333 21.333333V587.178667L949.909333 597.333333h-126.528A98.048 98.048 0 0 0 725.333333 695.381333V823.338667L716.714667 832H213.333333a21.333333 21.333333 0 0 1-21.333333-21.333333v-298.666667zM128 64H42.666667a42.666667 42.666667 0 0 0-42.666667 42.666667V469.333333a42.666667 42.666667 0 0 0 42.666667 42.666667h85.333333V810.666667a85.333333 85.333333 0 0 0 85.333333 85.333333h530.026667L1024 613.546667V-42.666667a85.333333 85.333333 0 0 0-85.333333-85.333333H213.333333a85.333333 85.333333 0 0 0-85.333333 85.333333v106.666667zM65.92 423.509333V149.333333h91.349333c40.597333 0 71.04 12.288 92.053334 36.864 19.946667 23.424 30.101333 56.832 30.101333 100.224 0 43.776-10.154667 77.184-30.101333 100.224-20.992 24.576-51.456 36.864-92.053334 36.864H65.92z m40.96-38.4H149.546667c31.146667 0 53.909333-7.68 68.266666-23.424 13.994667-15.36 20.992-40.704 20.992-75.264 0-33.792-6.997333-58.752-21.013333-74.88-14.336-15.744-37.098667-23.808-68.245333-23.808H106.88v197.376z m322.005333 43.776c-38.506667 0-68.608-13.44-90.304-41.088-21.013333-26.112-31.146667-59.904-31.146666-101.76 0-41.472 10.133333-75.264 31.146666-101.376 21.696-26.88 51.797333-40.704 90.304-40.704 38.144 0 68.245333 13.44 90.304 40.32 20.992 25.728 31.488 59.52 31.488 101.76 0 42.24-10.496 76.416-31.488 102.144-22.058667 27.264-52.16 40.704-90.304 40.704z m0-39.552c25.898667 0 45.845333-8.832 59.84-27.264 13.653333-18.432 20.650667-43.776 20.650667-76.032s-6.997333-57.216-20.650667-75.264c-13.994667-18.048-33.941333-27.264-59.84-27.264-25.898667 0-46.208 9.6-60.202666 28.416-13.653333 18.432-20.309333 43.008-20.309334 74.112 0 31.488 6.656 56.064 20.309334 74.496 14.336 19.2 34.304 28.8 60.202666 28.8z m268.8 39.552c-39.893333 0-70.357333-14.208-91.349333-43.392-18.56-25.344-27.648-58.752-27.648-99.456 0-41.472 8.746667-74.496 26.602667-99.072 20.288-28.416 51.434667-43.008 93.098666-43.008 26.944 0 50.048 8.448 69.290667 25.344 20.650667 18.048 33.6 43.008 39.210667 75.264h-39.893334c-4.906667-20.736-13.312-36.48-25.216-46.848-11.2-9.216-25.898667-14.208-43.733333-14.208-27.306667 0-47.616 9.6-60.565333 28.032-11.904 17.28-17.856 42.24-17.856 74.496 0 31.488 5.973333 56.064 18.218666 73.728 13.290667 19.968 32.896 29.568 59.136 29.568 17.493333 0 31.850667-3.84 43.050667-12.288 11.562667-8.448 19.264-21.504 23.466667-39.552h39.893333c-3.84 27.648-14.72 49.92-32.896 66.048-18.901333 16.896-43.413333 25.344-72.810667 25.344z"  horiz-adv-x="1024" />

    
    <glyph glyph-name="dian" unicode="&#58888;" d="M512 576a192.064 192.064 0 0 0 0-384 192 192 0 0 0 0 384z"  horiz-adv-x="1024" />

    
    <glyph glyph-name="shengrix" unicode="&#58926;" d="M699.68 671.52l3.712 0.192a32 32 0 0 0 31.808-28.256l0.192-3.744v-159.68L800 480a128 128 0 0 0 128-128v-320.704c16.64 0 30.176-12.352 32-28.288l0.256-3.712a32 32 0 0 0-28.288-31.808l-3.744-0.192H96.096a32 32 0 0 0 0 64h-0.128L96 352a128 128 0 0 0 128 128h63.36l0.032 159.712a32 32 0 0 0 28.288 31.808l3.712 0.192a32 32 0 0 0 31.808-28.256l0.192-3.744v-159.68h128V639.68a32 32 0 0 0 28.288 31.808l3.712 0.192a32 32 0 0 0 31.808-28.256l0.192-3.744v-159.68h128V639.68a32 32 0 0 0 28.288 31.808l3.712 0.192zM682.56 184.64c-56.8-30.528-113.984-45.984-171.328-45.984-57.184 0-113.792 15.36-169.44 45.792-35.392-30.08-72.096-45.792-109.952-45.792-24.64 0-48.608 6.656-71.872 19.584V32h704v125.952c-22.944-12.736-46.624-19.296-71.04-19.296-37.824 0-74.656 15.776-110.368 45.984zM800 416h-92.48a32.32 32.32 0 0 0-8.192 0h-183.84a32.32 32.32 0 0 0-8.16 0h-183.84a32.32 32.32 0 0 0-8.16 0H224a64 64 0 0 1-64-64v-114.624c25.408-23.68 49.28-34.72 71.872-34.72 23.744 0 49.344 12.128 76.992 38.144l5.952 5.792 17.92 17.952 21.536-13.312c52.736-32.576 104.928-48.576 156.992-48.576 48.704 0 98.08 13.984 148.416 42.432l10.816 6.304 21.376 12.928 17.728-17.6c30.272-30.112 58.016-44.064 83.36-44.064 22.464 0 46.048 10.976 71.04 34.592V352a64 64 0 0 1-64 64zM512 800a32 32 0 1 0 0-64 32 32 0 0 0 0 64z m192 0a32 32 0 1 0 0-64 32 32 0 0 0 0 64zM320 800a32 32 0 1 0 0-64 32 32 0 0 0 0 64z"  horiz-adv-x="1024" />

    
    <glyph glyph-name="weixin" unicode="&#58894;" d="M302.848897 587.813589c-18.67874 0-38.84109-12.091062-38.84109-31.622698 0-19.609452 20.16235-31.745564 38.84109-31.745565 18.946998 0 31.672869 12.758635 31.672869 31.741469-0.01843 19.213208-12.454541 31.626794-31.672869 31.626794zM495.296335 524.444302c19.005359 0 31.777305 12.758635 31.777305 31.745565 0 19.210136-12.471947 31.622698-31.777305 31.622698-18.62857 0-38.741773-12.091062-38.741773-31.618603 0.022525-19.612523 20.126514-31.74966 38.741773-31.74966zM903.969923 301.689859c0 107.183387-97.655111 198.754571-222.319292 208.468171l-0.690099 0.054266-2.091797 7.80303-0.031741-0.01843c-25.385189 113.782328-148.247332 199.386309-286.672532 199.386309-157.09063 0-284.894044-109.365287-284.894044-243.793239 0-71.907466 36.881373-137.009167 106.666325-188.268962l1.542995-1.134465-25.185531-75.718367c-1.256307-3.825236-0.113651-7.994497 2.894524-10.612572a10.001312 10.001312 0 0 1 6.505767-2.418417 10.14056 10.14056 0 0 1 4.437519 1.043339l93.113156 46.600093 12.572287-2.549474c28.175276-5.789048 52.502792-10.784584 82.347002-10.784585 8.706097 0 17.635401 0.380885 26.55037 1.14368l11.969219 1.650503c34.350329-83.986242 126.465196-140.329627 229.869423-140.329627 26.496104 0 53.015758 6.089046 80.110836 12.871263l0.998288 0.249828 72.052858-39.385797a9.917353 9.917353 0 0 1 4.749804-1.229686 9.870255 9.870255 0 0 1 6.210888 2.191114c3.144352 2.549474 4.419089 6.678804 3.243669 10.525541l-18.683859 62.139601 1.401699 1.111939c60.189099 47.555378 93.332267 104.736302 93.332266 161.004944z m-590.440878-41.700802l-15.765786 3.185307a9.499608 9.499608 0 0 1-1.964836 0.208873 9.514966 9.514966 0 0 1-4.351513-1.061769l-74.833731-37.461916 19.977027 60.020157c1.392484 4.187691-0.104436 8.706097-3.71568 11.243285-70.210888 48.936599-105.808309 108.643448-105.808309 177.465948 0 123.516406 118.925304 224.00256 265.099268 224.00256 128.697266 0 243.552626-78.858624 267.172637-183.423937l0.712624-3.170973-3.248788-0.040955c-132.39042-1.733438-240.095989-95.609388-240.095989-209.266802 0-15.566129 2.277121-31.782424 6.774025-48.20145l0.576448-1.390436-6.792456-1.472347h-0.235493a290.576607 290.576607 0 0 0-24.835363-1.065865c-28.167085 0-51.574128 4.836834-78.664085 10.43032z m474.805318-119.514038l13.701633-45.570064-54.294591 29.703937a9.814965 9.814965 0 0 1-4.736494 1.220471c-0.834467 0-1.623882-0.099317-2.413297-0.317404-26.19713-6.619419-53.292207-13.46614-80.010495-13.46614-123.548147 0-224.056826 85.087942-224.056826 189.670661 0 104.569408 100.508679 189.648135 224.056826 189.648135 121.202425 0 223.599149-86.848001 223.599149-189.648135 0-52.284704-32.788904-105.735614-92.32374-150.489641a9.94807 9.94807 0 0 1-3.522165-10.75182zM735.886861 388.45083c-12.227239 0-24.68178-12.594813-24.68178-24.958229 0-12.313245 12.454541-24.858912 24.68178-24.858912 19.686243 0 31.872526 12.903003 31.872526 24.858912 0 12.005055-12.186283 24.958229-31.872526 24.958229zM584.716336 388.45083c-12.327579 0-24.885533-12.594813-24.885533-24.958229 0-12.313245 12.558977-24.858912 24.885533-24.858912 19.581807 0 31.700514 12.903003 31.700513 24.858912 0 12.005055-12.118707 24.958229-31.700513 24.958229z"  horiz-adv-x="1024" />

    
    <glyph glyph-name="gengduo" unicode="&#58940;" d="M512-128C229.888-128 0 101.888 0 384S229.888 896 512 896s512-229.888 512-512-229.888-512-512-512z m0 972.8c-253.952 0-460.8-206.848-460.8-460.8s206.848-460.8 460.8-460.8 460.8 206.848 460.8 460.8-206.848 460.8-460.8 460.8zM513.536 381.44m-51.2 0a51.2 51.2 0 1 1 102.4 0 51.2 51.2 0 1 1-102.4 0ZM744.96 381.44m-51.2 0a51.2 51.2 0 1 1 102.4 0 51.2 51.2 0 1 1-102.4 0ZM281.6 381.44m-51.2 0a51.2 51.2 0 1 1 102.4 0 51.2 51.2 0 1 1-102.4 0Z"  horiz-adv-x="1024" />

    
    <glyph glyph-name="jianli" unicode="&#58999;" d="M494.388428 497.707532c21.856412 0 39.377668 17.701887 39.377668 39.377668v103.140589c0 21.856412-17.701887 39.377668-39.377668 39.377668H305.267243c-21.856412 0-39.377668-17.701887-39.377668-39.377668v-103.140589c0-21.856412 17.701887-39.377668 39.377668-39.377668h189.121185z m-192.191921 39.377668v103.140589c0 1.625684 1.264421 3.070736 3.070736 3.070736h189.121185c1.625684 0 3.070736-1.264421 3.070736-3.070736v-103.140589c0-1.625684-1.264421-3.070736-3.070736-3.070735H305.267243c-1.625684 0-3.070736 1.264421-3.070736 3.070735zM900.448051 626.678427c0 0.180632 0 0.180632 0 0-0.180632 0.903158-0.180632 1.806315-0.361263 2.709472s-0.361263 1.625684-0.722526 2.528841c0 0.180632 0 0.180632-0.180632 0.361263-0.180632 0.722526-0.541895 1.445052-0.722526 2.34821 0 0.180632-0.180632 0.361263-0.180631 0.541894-0.180632 0.541895-0.541895 1.083789-0.903158 1.625684-0.180632 0.180632-0.361263 0.541895-0.361263 0.722526-0.361263 0.541895-0.541895 0.903158-0.903157 1.445052-0.180632 0.361263-0.361263 0.541895-0.541895 0.903157-0.361263 0.361263-0.541895 0.722526-0.903157 1.083789-0.180632 0.361263-0.541895 0.541895-0.722526 0.722526l-1.083789 1.083789-0.361263 0.361263L663.278885 854.635385l-0.541894 0.541895c-0.361263 0.180632-0.541895 0.541895-0.903158 0.722526-0.361263 0.180632-0.541895 0.541895-0.903157 0.722526-0.361263 0.180632-0.722526 0.541895-1.083789 0.722526-0.361263 0.180632-0.541895 0.361263-0.903158 0.541895-0.361263 0.180632-0.722526 0.361263-1.083789 0.722526-0.361263 0.180632-0.541895 0.361263-0.903157 0.361263-0.361263 0.180632-0.903158 0.361263-1.264421 0.541894-0.361263 0.180632-0.541895 0.180632-0.903158 0.361263s-0.903158 0.361263-1.26442 0.541895c-0.361263 0.180632-0.722526 0.180632-1.083789 0.180631-0.361263 0.180632-0.903158 0.180632-1.264421 0.361263-0.361263 0-0.903158 0.180632-1.26442 0.180632-0.361263 0-0.722526 0.180632-1.083789 0.180631-0.903158 0-1.625684 0.180632-2.709473 0.180632H149.924149c-14.631152 0-26.552831-11.921679-26.552831-26.552832v-902.434997c0-14.631152 11.921679-26.552831 26.552831-26.552831h724.332334c14.631152 0 26.552831 11.921679 26.552831 26.552831V624.149585c-0.180632 0.903158-0.361263 1.806315-0.361263 2.528842zM671.949197 774.615629l134.209208-123.913212H671.949197V774.615629zM176.47698-40.754983V808.574352h442.547187v-184.424767c0-14.631152 11.921679-26.552831 26.552831-26.552831h202.126653v-638.351737H176.47698zM733.002646 131.206209H308.337978c-11.741048 0-25.288411-7.22526-25.28841-21.495149 0-11.921679 10.476627-21.495149 25.28841-21.495149h430.806139c16.618098 0 19.146939 7.947786 19.14694 21.495149-0.180632 13.1861-5.418945 21.495149-25.288411 21.495149zM733.002646 326.468866H512.993473c-11.741048 0-25.288411-7.22526-25.28841-21.495149 0-11.921679 10.476627-21.495149 25.28841-21.495149h226.150644c16.618098 0 19.146939 7.947786 19.14694 21.495149-0.180632 13.1861-5.418945 21.495149-25.288411 21.495149z"  horiz-adv-x="1024" />

    
    <glyph glyph-name="shouji" unicode="&#58887;" d="M690.7-26.7H333.3c-42.6 0-77.2 34.6-77.2 77.2v667c0 42.6 34.6 77.2 77.2 77.2h357.4c42.6 0 77.2-34.6 77.2-77.2v-666.9c0-42.6-34.6-77.3-77.2-77.3zM333.3 764.7c-26 0-47.2-21.2-47.2-47.2v-666.9c0-26 21.2-47.2 47.2-47.2h357.4c26 0 47.2 21.2 47.2 47.2V717.5c0 26-21.2 47.2-47.2 47.2H333.3zM561.6 687.9h-99.1c-8.3 0-15 6.7-15 15s6.7 15 15 15h99.1c8.3 0 15-6.7 15-15s-6.8-15-15-15zM609.1 54.9H414.9c-2.8 0-5 2.2-5 5s2.2 5 5 5H609c2.8 0 5-2.2 5-5s-2.2-5-4.9-5z"  horiz-adv-x="1024" />

    
    <glyph glyph-name="wenhao" unicode="&#59165;" d="M511.51393 832.105784c-114.5315 0-229.061976-43.508933-316.720432-131.167389-174.676321-174.676321-174.676321-458.764542 0-633.440863 87.658456-87.658456 202.188932-131.167389 316.720432-131.167389s229.062999 43.508933 316.720432 131.167389c174.676321 174.676321 174.676321 458.764542 0 633.440863C740.576929 788.596851 626.045429 832.105784 511.51393 832.105784zM511.51393 787.316695c52.466955 0 103.653755-10.237155 151.641699-29.432333 49.907667-20.475334 94.695732-49.907667 133.086088-88.937588 39.029922-38.390355 68.463278-83.179444 88.937588-133.086088 19.195178-47.987944 29.432333-99.174744 29.432333-151.641699s-10.237155-103.653755-29.432333-151.641699c-20.47431-49.907667-49.907667-94.695732-88.937588-133.086088-38.390355-39.029922-83.179444-68.463278-133.086088-88.937588-47.987944-19.195178-99.174744-29.432333-151.641699-29.432333-52.466955 0-103.653755 10.237155-151.641699 29.432333-49.907667 20.475334-94.695732 49.907667-133.086088 88.937588-39.029922 38.390355-68.463278 83.179444-88.937588 133.086088-19.195178 47.987944-29.432333 99.174744-29.432333 151.641699s10.237155 103.653755 29.432333 151.641699c20.475334 49.907667 49.907667 94.695732 88.937588 133.086088 38.390355 39.029922 83.179444 68.463278 133.086088 88.937588C407.860175 777.07954 459.046974 787.316695 511.51393 787.316695zM511.51393 221.699544c-18.555611 0-34.55091-15.355733-34.55091-34.55091 0-18.555611 15.996322-33.911344 34.55091-33.911344 19.195178 0 34.55091 15.355733 34.55091 33.911344C546.065863 206.342788 530.709107 221.699544 511.51393 221.699544zM512.154519 615.200686c-42.2298 0-76.141144-10.877745-101.734032-33.911344-25.593911-22.394033-41.589211-55.026244-46.707788-97.895611l58.225099-7.0383c4.479011 31.991622 15.355733 55.665811 31.352055 70.381977 15.996322 15.355733 35.831067 22.394033 59.505255 22.394033 24.953322 0 46.068222-8.317433 63.343677-24.953322 16.635889-15.996322 24.953322-35.1915 24.953322-57.585533 0-11.517311-2.559289-23.034623-8.317433-33.271778-5.758144-10.237155-18.555611-23.674189-37.750789-40.949644-19.834744-17.275455-33.271778-30.072923-40.949644-39.029922-9.597589-12.156878-17.275455-24.313755-21.754466-36.470633-6.398734-15.996322-9.597589-35.1915-9.597589-56.945967l0.639566-17.275455 53.746088 0c0.639566 22.394033 1.919722 39.029922 4.479011 48.627511 3.198855 10.237155 7.0383 19.195178 12.796444 26.873044 5.758144 7.677866 17.275455 19.834744 35.831067 35.831067 26.873044 24.313755 45.428655 44.789089 55.026244 61.424978 8.958022 16.635889 14.0766 35.1915 14.0766 55.026244 0 34.55091-13.437034 63.984267-40.310078 88.298022C592.773651 603.043808 556.942585 615.200686 512.154519 615.200686z"  horiz-adv-x="1024" />

    
    <glyph glyph-name="xiewrite18" unicode="&#59163;" d="M425.811762 285.140673 423.482371 166.66788 537.902026 197.602184 961.059078 739.232029 849.015402 826.817106ZM16.025411-128 901.193745-128 901.193745 570.817106 808.018131 453.415833 808.018131-34.824386 109.201025-34.824386 109.201025 663.992721 644.960806 663.992721 714.842517 757.168335 16.025411 757.168335ZM1004.851616 795.277161c0 0 10.948135 51.572702-8.152866 66.527389l-37.363421 29.163967c-19.054413 14.86151-66.527389-8.152866-66.527389-8.152866l-29.210555-37.363421 112.090264-87.53849L1004.851616 795.277161z"  horiz-adv-x="1024" />

    
    <glyph glyph-name="redu" unicode="&#58906;" d="M360.725 863c3.526-1.457 7.052-2.909 10.575-4.374 24.202-10.07 48.704-19.484 72.535-30.362 36.75-16.774 71.604-37.031 104.774-60.142 26.75-18.64 51.616-39.576 75.127-62.087 8.946-8.564 17.269-17.852 25.224-27.354 11.313-13.515 22.512-27.179 32.88-41.417 16.44-22.572 30.486-46.615 41.868-72.193 9.157-20.583 17.27-41.491 22.289-63.505 1.506-6.607 2.988-13.217 4.803-21.235 22.57 30.853 27.756 66.112 34.339 102.473 12.856-20.155 25.33-38.876 36.948-58.113 19.011-31.48 37.17-63.487 51.968-97.194 10.17-23.167 20.189-46.494 28.429-70.384 7.825-22.688 14.158-45.995 19.464-69.411 4.837-21.353 8.16-43.128 8.012-65.212-0.008-1.095 0.677-2.192 1.04-3.287v-28.275c-0.367-5.083-0.316-10.237-1.177-15.235-3.069-17.82-5.747-35.75-9.874-53.332-6.161-26.25-17.03-50.81-31.715-73.345-9.397-14.419-20.491-27.767-31.257-41.251-12.39-15.518-27.201-28.644-43.358-40.07-14.476-10.239-29.266-20.104-44.455-29.242-21.161-12.732-43.663-22.72-68-30.057 0.362 1.721 0.494 3.108 0.943 4.385 0.256 0.727-0.038 1.391-0.884 1.995 3.78 2.514 7.52 5.092 11.223 7.714 9.023 6.387 17.294 13.725 24.214 22.4 6.013 7.538 12.209 15.001 17.456 23.061 8.202 12.599 14.272 26.329 17.712 41.003 2.305 9.83 3.801 19.853 5.514 29.815 0.482 2.794 0.453 5.675 0.658 8.517v15.806c-0.203 0.613-0.585 1.226-0.58 1.838 0.082 12.346-1.774 24.519-4.475 36.456-2.963 13.09-6.5 26.12-10.87 38.804-4.602 13.355-10.197 26.396-15.877 39.347-8.265 18.843-18.406 36.737-29.023 54.335-6.488 10.754-13.455 21.22-20.634 32.488-3.677-20.327-6.573-40.039-19.178-57.287-1.013 4.483-1.841 8.178-2.682 11.872-2.804 12.306-7.334 23.994-12.448 35.501-6.357 14.3-14.2 27.74-23.381 40.359-5.791 7.96-12.046 15.598-18.364 23.153-4.442 5.313-9.09 10.505-14.086 15.293-13.13 12.584-27.017 24.288-41.957 34.708-18.524 12.92-37.99 24.245-58.513 33.622-13.31 6.081-26.993 11.345-40.51 16.974-1.966 0.819-3.936 1.63-5.905 2.445h-1.823c2.422-5.634 5.001-11.206 7.237-16.915 5.352-13.666 9.691-27.673 12.132-42.149 1.853-10.98 3.211-22.066 4.24-33.156 0.716-7.715 1.045-15.546 0.599-23.27-1.31-22.64-5.744-44.64-14.715-65.61-7.112-16.63-16.064-32.158-27.791-45.931-7.035-8.261-14.661-16.02-22.068-23.96-0.871-0.934-2.038-1.592-3.418-2.645-9.25 20.868-19.72 40.931-33.244 60.231-0.746-3.928-1.463-7.05-1.916-10.21-1.707-11.923-5.19-23.362-9.133-34.7-5.79-16.647-13.894-32.063-24.987-45.738-4.47-5.51-10.332-9.877-14.917-15.309-3.614-4.28-6.848-9.116-9.181-14.197-4.825-10.504-7.04-21.814-8.917-33.158l-0.338-2.063c-0.528-3.25-0.448-6.599-0.698-9.898-0.033-0.422-0.378-0.821-0.579-1.231v-24.319c0.404-2.901 0.709-5.82 1.23-8.7 1.621-8.97 2.588-18.146 5.19-26.827 2.969-9.909 6.878-19.636 11.374-28.962 5.008-10.388 11.799-19.73 19.437-28.488 12.581-14.425 27.58-25.594 44.386-34.512a198.767 198.767 0 0 1 6.817-3.451c-9.097-0.587-18.404-1.198-27.916-1.832-0.197 0.284-0.353 0.777-0.596 0.823-11.847 2.27-23.729 4.365-35.549 6.763-33.377 6.77-65.133 18.109-95.23 34.062-30.092 15.952-56.95 35.931-79.477 61.735-13.677 15.665-25.836 32.376-34.804 50.96-8.05 16.682-15.05 34.08-20.366 51.805-4.659 15.53-6.391 31.942-9.295 47.987-0.932 5.152-1.478 10.374-2.201 15.564v43.5c0.36 0.734 0.978 1.448 1.036 2.204 0.449 5.901 0.305 11.89 1.25 17.705 3.502 21.524 7.41 43.074 16.572 63.002 4.178 9.089 9.969 17.74 16.44 25.396 8.21 9.716 18.708 17.527 26.71 27.384 19.863 24.463 34.374 52.038 44.742 81.817 7.06 20.28 13.297 40.742 16.354 62.07 0.81 5.652 2.095 11.237 3.43 18.264 24.216-34.524 42.964-70.413 59.527-107.742 2.47 1.884 4.56 3.06 6.12 4.732 13.263 14.204 26.918 28.082 39.515 42.86 20.998 24.637 37.028 52.413 49.763 82.159 16.064 37.512 24.004 76.865 26.348 117.362 0.8 13.818 0.21 27.827-1.07 41.626-1.844 19.838-4.276 39.669-7.593 59.31-4.371 25.893-12.142 50.95-21.725 75.394-4.003 10.213-8.62 20.18-12.959 30.258h3.265z"  horiz-adv-x="1024" />

    
    <glyph glyph-name="xiangzuo" unicode="&#58963;" d="M671.968176-15.99957c-12.287381 0-24.576482 4.67206-33.951566 14.047144L286.048434 350.015751c-18.751888 18.719204-18.751888 49.12028 0 67.872168L638.016611 769.888778c18.751888 18.751888 49.12028 18.751888 67.872168 0 18.751888-18.719204 18.751888-49.12028 0-67.872168l-318.016611-318.047574L705.888778 65.952426c18.751888-18.751888 18.751888-49.12028 0-67.872168C696.544658-11.32751 684.255557-15.99957 671.968176-15.99957z"  horiz-adv-x="1024" />

    
    <glyph glyph-name="xiangxia1" unicode="&#58981;" d="M928 592c0-7-2.4-13.9-7.4-19.6l-387.2-417c-11.7-12.2-31.2-12.2-42.9 0l-387.2 417c-10.8 12.2-9.7 31.1 2.8 41.9 12.4 10.9 31.1 9.6 41.9-2.8l364-388.1 363.9 388.2c10.8 12.4 29.5 13.6 41.9 2.8 6.8-5.9 10.2-14.2 10.2-22.4z"  horiz-adv-x="1024" />

    
    <glyph glyph-name="tubiaozhizuo-" unicode="&#58885;" d="M474.91 829h74.19v-890h-74.19z"  horiz-adv-x="1024" />

    
    <glyph glyph-name="xiangshang1" unicode="&#59263;" d="M873.54758234 598.01134146a37.61954988 37.61954988 0 0 1-26.14959929-11.32834628L489.94145708 221.62703693000003a37.76115422 37.76115422 0 0 1 53.95124906-52.8656159l331.73173969 338.76475466 365.19756257-339.99199216a37.76115422 37.76115422 0 1 1 51.44957263 55.32009091L900.12199463 587.91023271A37.61954988 37.61954988 0 0 1 873.45317946 598.01134146z"  horiz-adv-x="1843" />

    
    <glyph glyph-name="shijian" unicode="&#58989;" d="M512 896C228.266667 896 0 667.733333 0 384s228.266667-512 512-512 512 228.266667 512 512S795.733333 896 512 896z m0-981.333333C253.866667-85.333333 42.666667 125.866667 42.666667 384S253.866667 853.333333 512 853.333333s469.333333-211.2 469.333333-469.333333-211.2-469.333333-469.333333-469.333333zM761.6 341.333333H490.666667V616.533333c0 12.8-8.533333 23.466667-21.333334 23.466667s-21.333333-10.666667-21.333333-23.466667V320c0-4.266667 2.133333-6.4 4.266667-10.666667 4.266667-6.4 10.666667-10.666667 17.066666-10.666666H761.6c14.933333 0 27.733333 8.533333 27.733333 21.333333s-12.8 21.333333-27.733333 21.333333z"  horiz-adv-x="1024" />

    
    <glyph glyph-name="yiliaoweisheng-" unicode="&#60766;" d="M1004-124H20c-8.8 0-16 7.2-16 16V714.4c0 8.8 7.2 16 16 16h984c8.8 0 16-7.2 16-16v-822.4c0-8.8-7.2-16-16-16z m-968 32h952V698.4H36v-790.4zM714.4 698.4H309.6c-8.8 0-16 7.2-16 16V876c0 8.8 7.2 16 16 16h404.8c8.8 0 16-7.2 16-16v-161.6c0-8.8-7.2-16-16-16z m-388.8 32h372.8V860H325.6v-129.6zM557.6 136H466.4c-4.8 0-8 3.2-8 8V249.6H352.8c-4.8 0-8 3.2-8 8V348.8c0 4.8 3.2 8 8 8h105.6V462.4c0 4.8 3.2 8 8 8h91.2c4.8 0 8-3.2 8-8v-105.6h105.6c4.8 0 8-3.2 8-8v-91.2c0-4.8-3.2-8-8-8H565.6V144c0-4-3.2-8-8-8z m-83.2 16h75.2V257.6c0 4.8 3.2 8 8 8h105.6v75.2H557.6c-4.8 0-8 3.2-8 8V454.4h-75.2v-105.6c0-4.8-3.2-8-8-8H360.8v-75.2h105.6c4.8 0 8-3.2 8-8V152z"  horiz-adv-x="1024" />

    
    <glyph glyph-name="shijian1" unicode="&#58890;" d="M66.7 383.3c0-246.5 199.8-446.4 446.3-446.4s446.4 199.8 446.4 446.3v0.1c0 246.5-199.8 446.4-446.3 446.4S66.7 629.9 66.7 383.3c0 0.1 0 0 0 0zM514.6 344.7h-5.1c-20.2 0-36.7 16.5-36.7 36.7V667.5c0 20.2 16.5 36.7 36.7 36.7h5.1c20.2 0 36.7-16.5 36.7-36.7v-286.1c0-20.2-16.5-36.7-36.7-36.7zM473.4 381.9V387c0 20.2 16.5 36.7 36.7 36.7h286.1c20.2 0 36.7-16.5 36.7-36.7v-5.1c0-20.2-16.5-36.7-36.7-36.7H510.1c-20.2 0-36.7 16.5-36.7 36.7z"  horiz-adv-x="1024" />

    
    <glyph glyph-name="message_1" unicode="&#58882;" d="M720 896a48 48 0 0 0 48-48V768h96A160 160 0 0 0 1024 608v-576a160 160 0 0 0-160-160h-704A160 160 0 0 0 0 32v576A160 160 0 0 0 160 768H256V848a48 48 0 0 0 96 0V768h320V848a48 48 0 0 0 48 48z m-11.52-364.352L460.8 279.87199999999996 347.904 395.2 281.92 328.51199999999994l113.024-115.52-0.192-0.32 65.92-66.752 65.984 66.624-0.256 0.256L774.4 464.832l-65.92 66.816z"  horiz-adv-x="1024" />

    
    <glyph glyph-name="041yusan" unicode="&#59327;" d="M950.5 344.7c0 61.2-12 120.5-35.6 176.4-22.8 53.9-55.5 102.4-97.1 144-41.6 41.6-90 74.3-144 97.1-49.2 20.8-101.1 32.6-154.5 35.1 0.1 0.8 0.1 1.6 0.1 2.4V871.5c0 12.2-9.9 22-22 22-12.2 0-22-9.8-22-22v-71.8c0-0.8 0-1.6 0.1-2.4C422 794.8 370.2 783 321 762.2c-53.9-22.8-102.4-55.5-144-97.1-41.6-41.6-74.3-90-97.1-144-23.6-55.9-35.6-115.2-35.6-176.4v-22h431.2c-0.1-0.7-0.1-1.3-0.1-2v-344.9c0-27.4-22.3-49.8-49.8-49.8-27.4 0-49.8 22.3-49.8 49.8 0 12.2-9.8 22-22 22s-22-9.8-22-22c0-51.7 42.1-93.8 93.8-93.8 51.7 0 93.8 42.1 93.8 93.8V320.7c0 0.7 0 1.3-0.1 2h431.2v22z m-861.6 22c2.5 47.4 13.1 93.5 31.6 137.2 20.6 48.7 50.2 92.4 87.7 130s81.3 67.1 130 87.7c50.4 21.3 104 32.1 159.2 32.1s108.8-10.8 159.2-32.1c48.7-20.6 92.4-50.2 130-87.7s67.1-81.3 87.7-130c18.5-43.7 29.1-89.7 31.6-137.2h-817z"  horiz-adv-x="1024" />

    
    <glyph glyph-name="daohang" unicode="&#58977;" d="M788.84 46.51c-3.83 0-7.69 0.89-11.26 2.71L511.99 185.27 246.42 49.22c-9.28-4.76-20.54-3.17-28.16 3.98-7.59 7.15-9.91 18.29-5.74 27.86l276.83 635.62c3.93 9 12.83 14.83 22.64 14.83s18.71-5.82 22.64-14.83l276.85-635.62c4.17-9.57 1.86-20.71-5.74-27.86a24.64 24.64 0 0 0-16.9-6.69zM511.99 237.7c3.86 0 7.72-0.9 11.26-2.71l215.37-110.33-226.63 520.32-226.61-520.32 215.35 110.33c3.54 1.8 7.4 2.71 11.26 2.71z"  horiz-adv-x="1024" />

    
    <glyph glyph-name="calendar-fill" unicode="&#60314;" d="M112 16c0-17.7 14.3-32 32-32h736c17.7 0 32 14.3 32 32V436H112v-420z m768 696H712v64c0 4.4-3.6 8-8 8h-56c-4.4 0-8-3.6-8-8v-64H384v64c0 4.4-3.6 8-8 8h-56c-4.4 0-8-3.6-8-8v-64H144c-17.7 0-32-14.3-32-32v-176h800V680c0 17.7-14.3 32-32 32z"  horiz-adv-x="1024" />

    
    <glyph glyph-name="solid-star" unicode="&#58891;" d="M247.852-92.17999999999995c-31.56-13.907-66.391 11.4-62.917 45.713l29.12 287.61L21.444 456.705c-22.98 25.718-9.675 66.665 24.032 73.964l282.531 61.181L473.501 841.648c17.358 29.803 60.412 29.803 77.77 0l145.494-249.797 282.531-61.18c33.707-7.3 47.012-48.247 24.032-73.965l-192.61-215.564 29.12-287.609c3.473-34.313-31.358-59.62-62.918-45.712L512.386 24.392000000000053 247.852-92.17899999999997z"  horiz-adv-x="1024" />

    
    <glyph glyph-name="fenxiang" unicode="&#59200;" d="M872 375.58695644v-295.74782577a75.40434756 75.40434756 0 0 0-75.40434756-75.40434844H227.40434756A75.40434756 75.40434756 0 0 0 152 79.83913067000003V649.03043467c0 41.63478223 33.76956533 75.40434756 75.40434756 75.40434756h271.91739199a31.30434756 31.30434756 0 1 1 0 62.60869599H227.40434756A138.01304356 138.01304356 0 0 1 89.39130401 649.03043467v-569.191304A138.01304356 138.01304356 0 0 1 227.40434756-58.17391289h569.19130488a138.01304356 138.01304356 0 0 1 138.01304355 138.01304356v295.74782577a31.30434756 31.30434756 0 1 1-62.60869599 0zM707.65217422 653.64782578a187.82608711 187.82608711 0 0 1-187.82608711-187.82608623v-196.66956533a31.30434756 31.30434756 0 1 1 62.60869511 0V465.82173955a125.21739112 125.21739112 0 0 0 125.217392 125.21739111h185.24347822a35.21739112 35.21739112 0 0 1 27 57.83478223L780.63043467 814.98260888a31.30434756 31.30434756 0 0 1-48.01304355-40.2260871l101.54347821-121.108696H707.65217422z"  horiz-adv-x="1024" />

    
    <glyph glyph-name="weizhi" unicode="&#58896;" d="M511.318478 841.026968c-187.44002 0-339.387687-151.952784-339.387687-339.38871 0-141.897777 282.960537-565.934376 339.387687-565.644781 55.540967-0.289596 339.38871 425.650353 339.38871 565.644781C850.707189 689.074184 698.755428 841.026968 511.318478 841.026968zM511.318478 20.839887c-47.022966-0.240477-282.82239 362.550223-282.82239 480.798371 0 156.198481 126.624932 282.823414 282.82239 282.823414s282.821367-126.624932 282.821367-282.823414C794.139845 384.971118 557.603641 20.59941 511.318478 20.839887zM511.318478 643.049964c-78.099752 0-141.411707-63.311954-141.411707-141.411707 0-78.097706 63.311954-141.411707 141.411707-141.411707 78.098729 0 141.410684 63.314001 141.410684 141.411707C652.729162 579.739033 589.417207 643.049964 511.318478 643.049964zM511.318478 416.794917c-46.859237 0-84.847433 37.984103-84.847433 84.84334 0 46.862307 37.988196 84.84641 84.847433 84.84641s84.84641-37.984103 84.84641-84.84641C596.164888 454.777997 558.177716 416.794917 511.318478 416.794917z"  horiz-adv-x="1024" />

    
    <glyph glyph-name="xueshimao" unicode="&#58979;" d="M965.63712 512.82944l-434.45248 227.46112a40.96512 40.96512 0 0 1-37.99552 0L58.74176 512.82944a40.95488 40.95488 0 0 1-21.78048-32.768A41.30816 41.30816 0 0 1 36.4032 473.6v-307.2a40.96 40.96 0 0 1 81.92 0V415.77472l101.40672-41.3184a40.71424 40.71424 0 0 1-4.5056-18.61632v-204.8a40.8576 40.8576 0 0 1 13.11232-30.03904c40.8832-67.51744 168.576-97.96096 283.84768-97.96096 115.26144 0 242.944 30.4384 283.83744 97.95072a40.84224 40.84224 0 0 1 13.12256 30.04928v204.8a40.71424 40.71424 0 0 1-4.5056 18.61632l157.44512 64.1536a40.97024 40.97024 0 0 1 3.55328 74.21952z m-238.40768-346.7008a17.96096 17.96096 0 0 1-0.256-0.67072c-8.17152-21.71392-86.93248-60.49792-214.78912-60.49792-127.86176 0-206.6176 38.784-214.78912 60.49792l-0.25088 0.65536v176.7936l199.58272-81.32096a40.86784 40.86784 0 0 1 30.91456 0l199.58272 81.32096v-176.77824z m-215.04 177.62304L174.90944 481.1776l337.28 176.5888 337.28-176.5888-337.28-137.42592z"  horiz-adv-x="1024" />

    
    <glyph glyph-name="gongwenbao1" unicode="&#58928;" d="M404.878457 896h216.842382c31.446376 0 59.569731-13.088216 80.160226-33.678712a112.64632 112.64632 0 0 0 33.678711-80.720858v-35.065002h85.735969c55.665691 0 105.776026-23.108244 142.512732-59.019292 36.736706-37.022119 59.009098-87.12226 59.009099-142.237512V120.51301c0-55.400665-22.272392-106.051245-59.009099-142.512731-36.736706-36.736706-86.857234-59.284318-142.512732-59.284318H205.018137c-55.665691 0-105.776026 22.547612-142.512732 59.284318l-2.222142 2.497362C25.208067 16.969321 3.496307 66.23361 3.496307 120.51301V545.268431c0 55.115252 22.547612 105.215393 59.009098 141.962292v0.27522c36.736706 35.911047 86.847041 59.019292 142.512732 59.019291h85.735969v35.065003c0 31.731788 12.802803 60.12017 33.403492 80.720858S373.421888 896 404.878457 896z m311.762527-227.973481c-1.396484 0-2.782775-0.560632-4.464672-0.560633H314.13757c-1.671704 0-2.782775 0.560632-4.454479 0.560633H205.018137a122.890601 122.890601 0 0 1-86.847041-35.911048c-22.822831-22.822831-36.461486-52.882916-36.461486-86.84704v-189.289853h111.902208v69.864979c0 13.088216 10.85588 23.108244 23.658683 23.108244h168.128531c12.802803 0 23.383464-10.020028 23.383464-23.108244v-69.864979h208.759084v69.864979c0 13.088216 10.580661 23.108244 23.658683 23.108244h167.853312c13.078023 0 23.933903-10.020028 23.933902-23.108244v-69.864979h111.902208V545.268431c0 33.964124-13.913874 64.024209-36.736706 86.84704-22.272392 21.98698-52.882916 35.911047-86.84704 35.911048H716.640984z m-379.11995 78.488522h351.282008v35.065002c0 18.928985-7.797886 35.350415-20.05025 47.32756-11.681539 12.527584-28.388381 20.040057-47.031953 20.040057H404.878457a65.818232 65.818232 0 0 1-47.317367-20.040057 65.492046 65.492046 0 0 1-20.040056-47.32756v-35.065002zM81.70961 309.232037v-188.72922c0-33.128273 13.088216-62.913138 34.799976-85.735969l1.671704-1.396484a122.880408 122.880408 0 0 1 86.84704-35.900854h616.277609c33.953931 0 64.574648 13.913874 86.84704 35.900854 22.822831 22.547612 36.736706 53.443549 36.736706 87.132453V309.232037H832.987477v-69.589759a24.117382 24.117382 0 0 0-23.933902-23.944096H641.200263c-13.078023 0-23.658683 10.85588-23.658683 23.944096v69.589759h-208.759084v-69.589759c0-13.078023-10.580661-23.944096-23.383464-23.944096H217.270501c-12.802803 0-23.658683 10.85588-23.658683 23.944096v69.589759H81.70961z m280.020546 92.96303H240.378745v-139.169325h121.361604V402.195067h-0.010193z m423.939955 0H664.308507v-139.169325h121.361604V402.195067z"  horiz-adv-x="1027" />

    
    <glyph glyph-name="xiangshang" unicode="&#59264;" d="M1341.155556 121.078519l-412.444445 559.028148c-5.12 7.016296-13.274074 11.093333-21.997037 11.093333h-0.094815c-8.722963 0-16.877037-4.266667-21.997037-11.282963L478.53037 120.035556c-6.068148-8.343704-6.921481-19.247407-2.18074-28.444445 4.645926-9.102222 14.032593-14.885926 24.367407-14.885926h819.2c15.075556 0 27.306667 12.231111 27.306667 27.306667-0.094815 6.447407-2.275556 12.325926-6.068148 17.066667z"  horiz-adv-x="1820" />

    
    <glyph glyph-name="renwu-mingpian" unicode="&#59209;" d="M224 96h-64a256.032 256.032 0 0 0 149.28 232.768 160 160 0 1 0 213.408 0A256.032 256.032 0 0 0 672 96h-64a192 192 0 1 1-384 0z m608-96h64.288A64.128 64.128 0 0 1 960 64.16V703.84A63.936 63.936 0 0 1 896.288 768H127.68A64.128 64.128 0 0 1 64 703.84v-639.68C64 28.704 92.544 0 127.712 0H128V672.256A31.872 31.872 0 0 0 160 704h704c17.664 0 32-14.56 32-31.744v-576.512A31.872 31.872 0 0 0 864 64h-32v-64zM415.936 352a96 96 0 1 1 0 192 96 96 0 0 1 0-192zM640 416c0 17.664 14.016 32 32.096 32h159.808A31.968 31.968 0 0 0 864 416c0-17.664-14.016-32-32.096-32H672.096A31.968 31.968 0 0 0 640 416zM128 64h704v-64H128v64z m512 224c0 17.664 14.208 32 32 32h96c17.664 0 32-14.208 32-32 0-17.664-14.208-32-32-32h-96c-17.664 0-32 14.208-32 32z"  horiz-adv-x="1024" />

    
    <glyph glyph-name="ziyuan1" unicode="&#58899;" d="M852.64067393-66h-681.36651826A109.44449737 109.44449737 0 0 0 62 43.35932606999995v681.36651826A109.44449737 109.44449737 0 0 0 171.27415566 834h170.34162891a24.01816992 24.01816992 0 0 0 20.5261664-11.49805987L491.34607754 612.55588154h446.46541084a24.10334033 24.10334033 0 0 0 24.18851162-24.10334033v-545.09321514a109.44449737 109.44449737 0 0 0-109.35932607-109.35932607z m-681.36651826 851.70814805a61.06747412 61.06747412 0 0 1-60.98230372-60.98230372v-681.36651826a61.06747412 61.06747412 0 0 1 60.98230372-61.06747412h681.36651826a61.06747412 61.06747412 0 0 1 61.06747412 61.06747412V564.2640295900001H477.80391817a24.18851162 24.18851162 0 0 0-20.52616641 11.41288945L327.90328349 785.70814805zM937.81148838 564.2640295900001a24.18851162 24.18851162 0 0 0-24.10334033 24.18851163V676.26365068a61.06747412 61.06747412 0 0 1-61.06747412 60.98230372H371.25522881a24.18851162 24.18851162 0 1 0 0 48.29185195h481.38544512a109.44449737 109.44449737 0 0 0 109.35932607-109.27415567v-87.81110947a24.18851162 24.18851162 0 0 0-24.18851162-24.18851162z"  horiz-adv-x="1024" />

    
    <glyph glyph-name="richeng" unicode="&#58923;" d="M987.761071-121.993548H94.3013a88.094633 88.094633 0 0 0-88.094633 88.094633V717.808583a88.094633 88.094633 0 0 0 88.094633 88.094633h835.297292a88.094633 88.094633 0 0 0 88.194741-88.094633v-809.76987a30.032261 30.032261 0 0 0-30.032262-30.032261z m-863.42751 60.064523h775.23277a58.062372 58.062372 0 0 1 58.162479 58.062371V687.776322a58.162479 58.162479 0 0 1-58.162479 58.062372H124.333561a58.062372 58.062372 0 0 1-58.062371-58.062372v-691.642976a57.962264 57.962264 0 0 1 58.062371-58.062371z m-58.062371 0M972.544726 520.696842h-918.987193c-16.117314 0-29.131293 13.614625-29.131294 30.332584s13.01398 30.432691 29.131294 30.432692h918.987193c16.117314 0 29.231401-13.614625 29.231401-30.432692s-13.114087-30.332584-29.231401-30.332584z m0 0M196.911526 661.748362c-16.818066 0-30.432691 10.611399-30.432691 23.625379V866.368169c0 13.01398 13.614625 23.625379 30.432691 23.625379s30.332584-10.611399 30.332584-23.625379v-180.994428c0-13.01398-13.614625-23.625379-30.332584-23.625379z m0 0M834.696647 661.748362c-16.717959 0-30.332584 10.611399-30.332584 23.625379V866.368169c0 13.01398 13.614625 23.625379 30.332584 23.625379s30.332584-10.611399 30.332584-23.625379v-180.994428c0-13.01398-13.514518-23.625379-30.332584-23.625379z m0 0M457.591553 93.237658a30.332584 30.332584 0 0 0-21.52312 8.90957L332.156809 206.15896a30.367621 30.367621 0 1 0 42.946134 42.946133l82.48861-82.48861 186.400235 186.400234a30.367621 30.367621 0 0 0 42.946134-42.946133L479.014566 102.147228a30.332584 30.332584 0 0 0-21.423013-8.90957z m0 0"  horiz-adv-x="1024" />

    
    <glyph glyph-name="lajixiang" unicode="&#59035;" d="M944 704H755.2v44.8c0 54.4-44.8 99.2-99.2 99.2H361.6c-54.4 0-99.2-44.8-99.2-99.2V704H83.2c-12.8 0-25.6-9.6-25.6-25.6 0-12.8 9.6-25.6 25.6-25.6H144v-633.6c0-54.4 44.8-99.2 99.2-99.2h550.4c54.4 0 99.2 44.8 99.2 99.2V652.8H944c12.8 0 25.6 9.6 25.6 25.6-3.2 12.8-9.6 25.6-25.6 25.6z m-627.2 44.8c0 25.6 22.4 48 48 48h294.4c25.6 0 48-22.4 48-48V704H316.8v44.8z m524.8-720c0-28.8-16-57.6-41.6-57.6H249.6c-25.6 0-54.4 19.2-54.4 44.8l3.2 636.8h643.2v-624zM368 515.2c-16 0-25.6-9.6-25.6-25.6v-342.4c0-16 12.8-25.6 25.6-25.6s25.6 9.6 25.6 25.6V489.6c-3.2 12.8-9.6 25.6-25.6 25.6z m160 0c-16 0-25.6-9.6-25.6-25.6v-342.4c0-16 12.8-25.6 25.6-25.6s25.6 9.6 25.6 25.6V489.6c-3.2 12.8-9.6 25.6-25.6 25.6z m160 0c-16 0-25.6-9.6-25.6-25.6v-342.4c0-16 12.8-25.6 25.6-25.6s25.6 9.6 25.6 25.6V489.6c-3.2 12.8-9.6 25.6-25.6 25.6z"  horiz-adv-x="1024" />

    
    <glyph glyph-name="x" unicode="&#59484;" d="M286.165333 97.834667L512 323.669333l225.834667-225.834666 60.330666 60.330666L572.330667 384l225.834666 225.834667-60.330666 60.330666L512 444.330667 286.165333 670.165333 225.834667 609.834667 451.669333 384l-225.834666-225.834667z"  horiz-adv-x="1024" />

    
    <glyph glyph-name="gongwenbao" unicode="&#58955;" d="M465.781946 192.525205c0-4.801876 3.601407-7.202814 7.202814-7.202813h225.688159c4.801876 0 7.202814 3.601407 7.202814 7.202813v105.641266c0 2.400938 0 6.002345 1.200469 8.403283H463.381008c1.200469-2.400938 1.200469-6.002345 1.200469-8.403283v-105.641266h1.200469z m307.320047 114.044549c1.200469-2.400938 1.200469-6.002345 1.200469-8.403283v-105.641266c0-42.016413-33.61313-75.629543-75.629543-75.629543H472.98476c-42.016413 0-75.629543 33.61313-75.629543 75.629543v105.641266c0 2.400938 0 6.002345 1.200469 8.403283H0v-344.534584C0-87.184056 40.815944-128 90.03517-128h1007.193435c49.219226 0 90.03517 40.815944 90.03517 90.03517V306.569754H773.101993zM0 361.791325V645.101993c0 42.016413 33.61313 75.629543 75.629543 75.629543h1036.004689c42.016413 0 75.629543-33.61313 75.629543-75.629543v-283.310668M780.304807 827.573271v-205.280188H404.55803V827.573271H780.304807m10.80422 68.426729H393.75381C362.541618 896 336.131301 869.589683 336.131301 838.377491v-225.688159c0-31.212192 26.410317-57.622509 57.622509-57.622509h397.355217c31.212192 0 57.622509 26.410317 57.622509 57.622509V838.377491c0 31.212192-26.410317 57.622509-57.622509 57.622509z"  horiz-adv-x="1191" />

    
    <glyph glyph-name="iconfontxiaogantanhao" unicode="&#58893;" d="M523.264 611.008l-22.016 0c-13.568 0-24.64-11.072-24.64-24.704l0-273.344c0-13.632 11.008-24.832 24.64-24.832l22.016 0c13.696 0 24.768 11.2 24.768 24.832l0 273.344C548.032 599.936 536.96 611.008 523.264 611.008zM512.064 860.608c-263.296 0-476.672-213.376-476.672-476.672 0-263.04 213.376-476.544 476.672-476.544 263.104 0 476.672 213.504 476.672 476.544C988.736 647.232 775.168 860.608 512.064 860.608zM507.712-33.216c-229.056 0-414.656 185.664-414.656 414.72 0 229.12 185.6 414.656 414.656 414.656 229.248 0 414.784-185.536 414.784-414.656C922.496 152.448 736.96-33.216 507.712-33.216zM521.856 201.728l-20.608 0c-13.568 0-24.64-11.072-24.64-24.96l0-25.92c0-13.696 11.008-24.896 24.64-24.896l20.608 0c13.696 0 24.768 11.2 24.768 24.896l0 25.92C546.624 190.72 535.616 201.728 521.856 201.728z"  horiz-adv-x="1024" />

    
    <glyph glyph-name="yinsi" unicode="&#59334;" d="M875.7819-127.296484H148.2181c-63.95603 0-115.888327 54.682406-115.888327 121.900194V414.347136c0 67.217788 51.996253 121.900194 115.888327 121.900194h727.499844c63.892074 0 115.888327-54.682406 115.888327-121.900194v-419.67947C991.670227-72.614078 939.673974-127.296484 875.7819-127.296484zM148.2181 472.2913c-28.652302 0-51.932297-26.030104-51.932296-57.944164v-419.67947c0-32.041971 23.279995-58.008119 51.932296-58.008119h727.499844c28.652302 0 51.932297 25.966148 51.932296 57.944163V414.347136c0 31.978015-23.279995 57.944163-51.932296 57.944164H148.2181zM749.340828 506.7636a31.978015 31.978015 0 0 0-31.978015 31.978015V631.349947C716.019736 726.068828 631.341952 832.04397 512 832.04397 398.73387 832.04397 306.637187 730.034102 306.637187 604.616326v-61.269877a31.978015 31.978015 0 0 0-63.95603 0v61.269877C242.681157 765.33783 363.494098 896 512 896c141.534695 0 267.400162-123.435138 269.318843-264.202361v-93.056024a31.978015 31.978015 0 0 0-31.978015-31.978015zM512 59.774905c-79.369434 0-143.901068 64.595591-143.901068 143.901068S432.630566 347.577041 512 347.577041c79.305477 0 143.901068-64.595591 143.901068-143.901068s-64.595591-143.901068-143.901068-143.901068z m0 223.846106c-44.065705 0-79.945038-35.879333-79.945038-79.945038s35.879333-79.945038 79.945038-79.945038 79.945038 35.879333 79.945038 79.945038-35.879333 79.945038-79.945038 79.945038z"  horiz-adv-x="1024" />

    
    <glyph glyph-name="wujiaoxingkong" unicode="&#58950;" d="M791.2-122.4c-8.8 0-16.8 2.4-24.8 6.4l-224 123.2c-9.6 4.8-20 8-30.4 8-10.4 0-20.8-2.4-30.4-8l-224-123.2c-8-4-16-6.4-24.8-6.4-15.2 0-30.4 7.2-40.8 19.2-11.2 12.8-15.2 29.6-12.8 47.2l43.2 260.8c4 21.6-3.2 44-18.4 59.2L21.6 449.6A57.6 57.6 0 0 0 8 508.8c6.4 20 23.2 34.4 43.2 37.6l250.4 38.4c20.8 3.2 39.2 16.8 48.8 36.8l112 237.6C472 879.2 489.6 890.4 511.2 890.4c20.8 0 39.2-12 48-31.2l112-237.6c9.6-20 28-33.6 48.8-36.8l250.4-38.4c20-3.2 36.8-16.8 43.2-37.6 7.2-20.8 1.6-44-13.6-59.2l-181.6-184.8c-15.2-15.2-22.4-37.6-18.4-59.2l43.2-260.8c3.2-17.6-1.6-34.4-12.8-47.2-8.8-12.8-23.2-20-39.2-20zM512 64.8c19.2 0 37.6-4.8 54.4-13.6l236.8-130.4-6.4 14.4v0.8l-42.4 260.8c-6.4 37.6 5.6 76 32 102.4L968 484c2.4 2.4 3.2 6.4 1.6 9.6v3.2l-256 39.2c-37.6 5.6-69.6 29.6-86.4 64.8L512 845.6 396 600.8c-16.8-35.2-48.8-59.2-86.4-64.8L49.6 496l5.6-5.6c0-1.6 0.8-4 2.4-6.4l181.6-184.8c26.4-26.4 38.4-64.8 32-102.4L228-64v-4l1.6-7.2 228.8 125.6c16 9.6 34.4 14.4 53.6 14.4z"  horiz-adv-x="1024" />

    
    <glyph glyph-name="zhaopingangwei" unicode="&#58892;" d="M515.128889 365.226667a199.111111 199.111111 0 1 0 0 398.222222 199.111111 199.111111 0 0 0 0-398.222222z m0 56.888889a142.222222 142.222222 0 1 1 0 284.444444 142.222222 142.222222 0 0 1 0-284.444444zM828.017778 109.226667a28.444444 28.444444 0 1 0-56.888889 0 256 256 0 0 1-512 0 28.444444 28.444444 0 1 0-56.888889 0 312.945778 312.945778 0 0 0 625.777778 0zM113.777778 129.422222m28.444444 0l739.555556 0q28.444444 0 28.444444-28.444444l0 0q0-28.444444-28.444444-28.444445l-739.555556 0q-28.444444 0-28.444444 28.444445l0 0q0 28.444444 28.444444 28.444444ZM494.478222 370.176l28.444445-29.127111 28.444444 29.127111M459.093333 164.522667l35.384889 176.526222h56.888889l35.384889-176.526222-63.829333-35.100445z"  horiz-adv-x="1024" />

    
    <glyph glyph-name="bixin" unicode="&#59013;" d="M835.7 375.4c-8.7 5-17.8 8.3-27.1 10-5.9 36.9-27.6 70.9-62.4 90.9l-37 21.3c-8.7 5-17.8 8.3-27.1 10-5.9 36.9-27.6 70.9-62.4 90.9l-37 21.3 19.5 33.8c28.7 49.7 23.4 112.3-13 152.1-28.7 31.4-68.7 46.8-109.8 42.3-40.5-4.4-76.8-28-97.1-63.3l-7.5-13C334.6 826.3 263 850.4 201.6 827.9c-42-15.4-74.7-48-89.7-89.6-15.1-41.6-11-87.4 11.1-125.6l80-138.6-55.3-95.8C88.9 276.6 124 145.8 225.8 87l221.7-128c142.6-82.3 325.6-33.3 408 109.3l42.7 73.9c47 81.5 19 186.1-62.5 233.2zM196.9 655.6c-9.5 16.4-11.2 36-4.8 53.8 6.6 18.1 20.4 31.8 38.9 38.6 16.8 6.2 35.8 3.6 52-5.8 11-6.4 20.8-15.9 27.7-27.9l15.4-26.8-73.9-128-55.3 96.1zM781.6 111C722.8 9.1 592-25.9 490.2 32.9l-221.7 128c-61.1 35.3-82.1 113.7-46.9 174.9l31.6 54.7 0.1 0.1 149.3 258.7c1.4 2.5 1.8 5.3 2.7 7.9 2.7 2.7 5.2 5.7 7.1 9.1l43.9 76c6.9 11.9 18.7 19.6 32.4 21.1 8.1 0.9 23.8 0.1 37.6-15 11.4-12.5 12.3-34.3 2.1-51.9l-62.2-107.7-64-110.9c-11.8-20.4-4.8-46.5 15.6-58.3 20.4-11.8 46.5-4.8 58.3 15.6l64 110.8 37-21.3c20.4-11.8 27.4-37.9 15.6-58.3v-0.1L539 373.4c-11.8-20.4-4.8-46.5 15.6-58.3s46.5-4.8 58.3 15.6l53.7 93 36.9-21.3c20.4-11.8 27.4-37.9 15.6-58.3 0-0.1-0.1-0.1-0.1-0.2v-0.1l-53.5-92.7c-11.8-20.4-4.8-46.5 15.6-58.3s46.5-4.8 58.3 15.6l53.7 93c40.7-23.5 54.7-75.8 31.2-116.5L781.6 111z"  horiz-adv-x="1024" />

    
    <glyph glyph-name="ziyuan" unicode="&#58889;" d="M785.454545-127.569024H353.939394a138.558923 138.558923 0 0 0-119.703704 69.171718l-215.488215 373.656565a139.097643 139.097643 0 0 0 0 138.343435l215.488215 373.656565A138.558923 138.558923 0 0 0 353.939394 896H785.454545A138.774411 138.774411 0 0 0 905.050505 826.828283l215.488216-373.656566a138.558923 138.558923 0 0 0 0-138.343434L905.050505-58.828283A138.774411 138.774411 0 0 0 785.454545-127.569024zM353.939394 834.909091a77.252525 77.252525 0 0 1-66.801347-38.572391l-215.488215-373.764309a77.575758 77.575758 0 0 1 0-77.144782l215.488215-373.764309a77.468013 77.468013 0 0 1 66.801347-38.572391H785.454545a77.683502 77.683502 0 0 1 66.909091 38.680135l215.488216 373.656565a77.144781 77.144781 0 0 1 0 77.144782l-215.488216 373.764309a77.360269 77.360269 0 0 1-66.909091 38.572391zM569.750842 191.892256a192.215488 192.215488 0 1 0 192.107744 192.107744 192.323232 192.323232 0 0 0-192.107744-192.107744z m0 323.232323A131.124579 131.124579 0 1 1 700.3367 384a131.232323 131.232323 0 0 1-130.585858 131.124579z"  horiz-adv-x="1139" />

    
    <glyph glyph-name="saoyisao" unicode="&#59323;" d="M993.38387 544.439451a31.96005 31.96005 0 0 0-31.96005 31.96005V811.753308a20.326592 20.326592 0 0 1-20.326592 20.326592h-235.353807a31.96005 31.96005 0 0 0 0 63.9201h235.353807a84.374532 84.374532 0 0 0 84.246692-84.246692V576.399501a31.96005 31.96005 0 0 0-31.96005-31.96005zM31.961648 544.439451a31.96005 31.96005 0 0 0-31.96005 31.96005V811.753308A84.374532 84.374532 0 0 0 84.24829 896H319.602097a31.96005 31.96005 0 0 0 0-63.9201H84.24829a20.390512 20.390512 0 0 1-20.326592-20.326592V576.399501a31.96005 31.96005 0 0 0-31.96005-31.96005zM939.754906-128H704.401099a31.96005 31.96005 0 0 0 0 63.9201h235.353807c11.058177 0 20.326592 11.697378 20.326592 25.50412V191.600499a31.96005 31.96005 0 0 0 63.9201 0v-230.176279c0-49.282397-37.840699-89.42422-84.246692-89.42422zM319.602097-128H84.24829c-46.469913 0-84.246692 40.141823-84.246692 89.42422V191.600499a31.96005 31.96005 0 0 0 63.9201 0v-230.176279c0-13.870662 9.332335-25.50412 20.326592-25.50412H319.602097a31.96005 31.96005 0 0 0 0-63.9201zM992.041548 352.03995H33.24005a31.96005 31.96005 0 0 0 0 63.9201h958.801498a31.96005 31.96005 0 0 0 0-63.9201z"  horiz-adv-x="1026" />

    
    <glyph glyph-name="zhijiao-triangle" unicode="&#58962;" d="M71.675-66l-9.675 900 890.325-900z"  horiz-adv-x="1024" />

    
    <glyph glyph-name="xiangxia" unicode="&#58900;" d="M128.005 593.026l386.971-420.571 381.019 422.746z"  horiz-adv-x="1024" />

    
    <glyph glyph-name="xiangyou" unicode="&#59251;" d="M368 704L320 658.272 608 384l-288-274.24L368 64 704 384z"  horiz-adv-x="1024" />

    
    <glyph glyph-name="shenglve" unicode="&#58883;" d="M110.336 323.669333a85.333333 85.333333 0 1 1 120.661333 120.661334 85.333333 85.333333 0 0 1-120.661333-120.661334zM451.669333 323.669333a85.333333 85.333333 0 1 1 120.661334 120.661334 85.333333 85.333333 0 0 1-120.661334-120.661334zM793.002667 323.669333a85.333333 85.333333 0 1 1 120.661333 120.661334 85.333333 85.333333 0 0 1-120.661333-120.661334z"  horiz-adv-x="1024" />

    
    <glyph glyph-name="xiaoxi" unicode="&#58948;" d="M201.335467 85.333333h621.354666l-49.237333 86.613334a42.555733 42.555733 0 0 0-5.461333 24.277333V426.666667c0 141.184-114.816 256-256 256-141.141333 0-256-114.816-256-256v-230.186667l0.128-1.493333a43.008 43.008 0 0 0-5.546667-23.04L201.335467 85.333333z m694.656-85.333333h-768a42.666667 42.666667 0 0 0-37.077334 63.744l79.957334 140.629333L170.658133 426.666667c0 188.202667 153.130667 341.333333 341.333334 341.333333s341.333333-153.130667 341.333333-341.333333v-222.549334l79.744-140.373333a42.769067 42.769067 0 0 0-0.170667-42.538667 42.632533 42.632533 0 0 0-36.906666-21.205333zM512-128c-117.632 0-213.333333 95.701333-213.333333 213.333333h85.333333c0-70.570667 57.429333-128 128-128s128 57.429333 128 128h85.333333c0-117.632-95.701333-213.333333-213.333333-213.333333M405.9648 696.541867a127.505067 127.505067 0 0 0-21.896533 71.552c0 70.528 57.386667 127.914667 127.914666 127.914666 70.570667 0 127.914667-57.386667 127.914667-127.914666 0-25.6-7.509333-50.304-21.794133-71.509334l-70.784 47.658667c4.778667 7.082667 7.253333 15.317333 7.253333 23.850667 0 23.466667-19.072 42.581333-42.581333 42.581333-23.466667 0-42.581333-19.114667-42.581334-42.581333 0-8.533333 2.517333-16.768 7.253334-23.808l-70.698667-47.744z"  horiz-adv-x="1024" />

    
    <glyph glyph-name="jia" unicode="&#58919;" d="M924.549 558.293c-22.553 53.321-54.833 101.202-95.943 142.312-41.11 41.11-88.991 73.39-142.313 95.943-55.221 23.357-113.861 35.2-174.293 35.2S392.928 819.905 337.707 796.549c-53.321-22.553-101.202-54.833-142.312-95.943-41.11-41.11-73.39-88.991-95.943-142.312-23.357-55.222-35.2-113.862-35.2-174.294s11.843-119.072 35.199-174.293c22.553-53.321 54.833-101.202 95.943-142.313 41.11-41.11 88.991-73.391 142.312-95.943 55.221-23.356 113.862-35.199 174.293-35.199s119.072 11.843 174.293 35.199c53.321 22.553 101.202 54.833 142.313 95.943s73.391 88.991 95.943 142.313c23.356 55.221 35.199 113.861 35.199 174.293s-11.842 119.072-35.198 174.293zM512-0.252c-211.877 0-384.252 172.375-384.252 384.252S300.123 768.252 512 768.252 896.252 595.877 896.252 384 723.877-0.252 512-0.252zM740 416H544V612c0 15.464-14.327 28-32 28s-32-12.536-32-28v-196H284c-15.464 0-28-14.327-28-32s12.536-32 28-32h196v-196c0-15.464 14.327-28 32-28s32 12.536 32 28V352h196c15.464 0 28 14.327 28 32s-12.536 32-28 32z"  horiz-adv-x="1024" />

    
    <glyph glyph-name="jia1" unicode="&#58886;" d="M512.17594-127.648121c-29.52585 0-58.347943 6.397801-58.347943 37.395145V331.969885H37.459123c-23.76783 0-37.459123 22.392303-37.459123 51.182406 0 26.614851 10.076536 51.790197 35.187904 51.790198h425.005904V852.111087c0 28.054356 20.888819 43.888913 51.854176 43.888913 28.790103 0 51.182406-12.795602 51.182406-37.395145v-416.49683h430.156133c28.790103 0 30.261598-34.516135 30.261598-58.283965s-7.933273-51.182406-36.723376-51.182406H563.326357v-422.926619c0.735747-24.40761-21.592578-37.363156-51.150417-37.363156z"  horiz-adv-x="1024" />

    
    <glyph glyph-name="sousuo" unicode="&#58884;" d="M222.697314 673.186178A323.142215 323.142215 0 0 1 133.689183 383.98925c19.249596 87.371166 64.509646 172.745373 135.011166 243.296892C339.250867 697.86466 424.627075 743.09871 511.99724 762.349306c-101.629866 19.148598-210.683576-10.521779-289.299926-89.163128zM989.427216 73.877761L867.727771 195.577206a118.013522 118.013522 0 0 1-92.798051 34.124284c114.454597 165.551524 97.917944 394.384719-49.483961 541.812624-165.936516 165.986515-435.037866 165.986515-601.024381 0-165.936516-165.986515-165.936516-435.113864 0-601.10138 147.401905-147.426905 376.056104-163.83656 541.710626-49.380963-2.559946-33.279301 8.856814-67.531582 34.123284-92.798051l121.700444-121.725445c46.079033-45.977035 121.367452-45.977035 167.343487 0 46.20703 45.976035 46.20703 121.290453 0.127997 167.369486zM676.089795 219.896696c-138.672088-138.672088-363.38437-138.672088-502.00546 0-138.672088 138.672088-138.672088 363.435369 0 502.107457 138.621089 138.673088 363.332371 138.673088 502.00546 0 138.647089-138.569091 138.647089-363.435369 0-502.107457z"  horiz-adv-x="1024" />

    


  </font>
</defs>
</svg>
